<svg id="svg" version="1.1" xmlns="http://www.w3.org/2000/svg" xmlns:xlink="http://www.w3.org/1999/xlink" width="400" height="400" viewBox="0, 0, 400,400"><g id="svgg"><path id="path0" d="M192.451 91.058 C 166.623 95.375,148.359 121.212,153.006 146.856 C 160.843 190.107,215.729 201.843,240.966 165.665 C 242.586 163.342,246.396 155.956,246.406 155.119 C 246.409 154.833,246.845 153.206,247.374 151.503 C 257.579 118.654,227.222 85.245,192.451 91.058 M42.400 105.548 C 33.136 107.596,27.340 118.004,30.399 127.096 C 35.984 143.696,59.489 141.967,62.823 124.711 C 65.017 113.355,53.971 102.991,42.400 105.548 M348.800 105.718 C 331.555 110.658,332.581 134.930,350.184 138.465 C 358.900 140.216,367.830 133.957,369.624 124.842 C 371.920 113.172,360.236 102.443,348.800 105.718 M102.973 115.942 C 101.136 117.526,95.686 123.586,93.208 126.800 C 92.445 127.790,91.720 128.690,91.597 128.800 C 91.200 129.156,88.541 132.918,86.427 136.116 C 76.335 151.381,69.790 167.334,66.228 185.346 C 64.990 191.603,64.580 191.026,70.486 191.331 C 78.823 191.762,93.643 195.039,97.000 197.195 C 97.220 197.336,98.660 197.968,100.200 198.600 C 106.353 201.123,113.995 205.699,119.800 210.336 C 134.200 221.840,144.711 237.328,150.111 255.000 C 150.981 257.847,151.421 259.721,152.790 266.400 C 154.417 274.344,154.258 290.890,152.474 299.200 C 152.262 300.190,151.887 301.972,151.643 303.160 C 151.398 304.349,151.019 305.537,150.799 305.801 C 150.018 306.743,149.859 309.802,150.556 310.498 C 151.376 311.319,151.381 312.245,150.567 312.557 C 149.682 312.897,149.515 312.862,149.802 312.396 C 149.939 312.174,149.924 311.592,149.769 311.101 C 149.482 310.198,148.095 313.525,148.026 315.280 C 148.012 315.654,147.720 316.117,147.377 316.309 C 147.035 316.500,146.536 317.274,146.269 318.029 C 145.756 319.479,142.835 324.861,142.377 325.200 C 142.007 325.474,140.330 328.729,139.791 330.221 C 139.044 332.284,141.261 333.560,142.773 331.937 C 143.650 330.996,144.358 331.691,143.855 333.000 C 143.612 333.635,145.804 334.800,147.243 334.800 C 147.653 334.800,149.086 335.376,150.429 336.079 C 151.771 336.783,153.528 337.391,154.334 337.431 C 156.560 337.542,158.327 338.032,158.544 338.598 C 159.045 339.904,165.328 341.584,167.600 341.020 C 168.281 340.851,169.047 341.059,170.000 341.670 C 171.772 342.808,176.338 343.959,179.200 343.990 C 180.410 344.003,183.020 344.294,185.000 344.636 C 189.367 345.390,210.955 345.501,211.832 344.773 C 212.118 344.536,214.028 344.272,216.076 344.186 C 218.124 344.101,220.700 343.756,221.800 343.420 C 222.900 343.084,224.363 342.807,225.050 342.804 C 227.342 342.796,228.899 342.308,229.102 341.532 C 229.271 340.885,229.557 340.820,231.233 341.042 C 232.590 341.222,233.650 341.107,234.774 340.657 C 235.656 340.304,236.961 339.913,237.673 339.787 C 239.167 339.524,240.000 338.938,240.000 338.151 C 240.000 337.745,240.621 337.600,242.354 337.600 C 244.442 337.600,244.784 337.484,245.383 336.570 C 245.982 335.656,246.236 335.570,247.629 335.805 C 248.553 335.961,249.200 335.912,249.200 335.685 C 249.200 335.473,249.681 335.300,250.269 335.300 C 250.857 335.300,251.551 335.008,251.813 334.650 C 252.074 334.293,252.470 334.000,252.693 334.000 C 253.704 334.000,256.767 332.310,257.339 331.437 C 257.697 330.891,258.545 330.354,259.286 330.205 C 261.982 329.662,262.024 329.633,261.489 328.703 C 260.667 327.275,259.095 325.600,258.577 325.600 C 257.992 325.600,257.600 324.702,257.600 323.362 C 257.600 322.827,257.435 322.077,257.234 321.695 C 257.032 321.313,256.577 320.370,256.223 319.600 C 255.868 318.830,255.416 317.930,255.218 317.600 C 255.020 317.270,254.754 316.668,254.627 316.262 C 254.500 315.856,254.037 315.430,253.598 315.315 C 253.159 315.201,252.800 314.928,252.800 314.711 C 252.800 314.493,253.070 314.418,253.400 314.545 C 254.299 314.890,254.132 314.045,252.816 311.600 C 252.165 310.390,251.625 308.826,251.616 308.124 C 251.607 307.422,251.430 306.742,251.223 306.614 C 251.016 306.486,250.737 305.531,250.603 304.491 C 250.469 303.451,250.210 302.322,250.027 301.982 C 249.845 301.642,249.395 299.752,249.026 297.782 C 248.658 295.812,248.227 293.930,248.067 293.600 C 247.383 292.183,247.954 271.125,248.777 267.400 C 249.020 266.300,249.390 264.320,249.599 263.000 C 250.048 260.166,250.627 258.067,252.524 252.400 C 261.511 225.546,282.462 204.574,309.400 195.467 C 314.326 193.802,324.045 191.786,329.102 191.381 C 333.071 191.063,332.890 191.302,332.138 187.380 C 327.442 162.873,317.468 141.742,302.034 123.600 C 299.246 120.323,293.948 114.800,293.592 114.800 C 293.444 114.800,293.199 118.154,293.046 122.253 C 291.564 162.049,265.956 196.875,229.400 208.811 C 228.080 209.242,226.433 209.781,225.740 210.009 C 204.981 216.834,177.474 214.458,156.880 204.063 C 124.196 187.564,105.232 156.726,104.290 118.542 L 104.200 114.885 102.973 115.942 M251.645 313.114 C 250.865 313.745,250.612 313.205,250.987 311.709 L 251.252 310.652 251.767 311.626 C 252.203 312.452,252.185 312.678,251.645 313.114 M148.600 321.600 C 148.600 321.924,148.285 322.250,147.900 322.324 C 147.409 322.418,147.200 322.202,147.200 321.600 C 147.200 320.998,147.409 320.782,147.900 320.876 C 148.285 320.950,148.600 321.276,148.600 321.600 M235.340 338.587 C 235.631 339.346,234.864 339.824,234.285 339.245 C 234.040 339.000,233.471 338.797,233.020 338.794 C 232.344 338.789,232.305 338.720,232.800 338.400 C 233.699 337.819,235.084 337.921,235.340 338.587 " stroke="none" fill="#f83d05" fill-rule="evenodd"></path><path id="path1" d="M0.000 200.000 L 0.000 400.000 200.000 400.000 L 400.000 400.000 400.000 200.000 L 400.000 0.000 200.000 0.000 L 0.000 0.000 0.000 200.000 M210.000 90.259 C 211.870 90.601,213.760 91.026,214.200 91.204 C 214.640 91.382,215.954 91.821,217.120 92.179 C 224.627 94.482,232.967 100.233,238.604 106.994 C 239.702 108.310,240.892 109.715,241.249 110.115 C 241.607 110.515,242.526 112.048,243.293 113.521 C 244.060 114.994,244.977 116.740,245.330 117.400 C 250.360 126.806,251.434 142.533,247.818 153.849 C 246.820 156.972,243.685 163.677,243.103 163.933 C 242.936 164.007,242.800 164.255,242.800 164.485 C 242.800 166.079,229.658 180.592,228.901 179.834 C 228.785 179.718,228.217 179.961,227.638 180.373 C 216.777 188.106,194.269 190.710,184.034 185.418 C 183.360 185.069,182.671 184.771,182.504 184.756 C 182.185 184.728,179.241 183.474,177.700 182.711 C 177.205 182.465,176.800 182.135,176.800 181.976 C 176.800 181.817,176.323 181.567,175.739 181.421 C 175.156 181.274,173.923 180.535,172.998 179.777 C 172.074 179.020,171.156 178.400,170.959 178.399 C 170.484 178.398,163.674 171.768,162.399 170.065 C 161.850 169.331,161.190 168.505,160.934 168.228 C 158.949 166.085,154.835 157.835,153.442 153.200 C 150.500 143.416,150.661 134.231,153.978 122.600 C 154.554 120.580,156.444 116.261,157.244 115.139 C 157.660 114.554,158.000 113.957,158.000 113.812 C 158.000 112.499,168.940 100.000,170.090 100.000 C 170.280 100.000,170.920 99.550,171.513 99.000 C 172.107 98.450,172.737 98.000,172.914 98.000 C 173.091 98.000,173.686 97.550,174.236 97.000 C 174.786 96.450,175.588 96.000,176.018 96.000 C 176.448 96.000,176.800 95.845,176.800 95.655 C 176.800 95.465,177.925 94.812,179.300 94.203 C 180.675 93.595,182.555 92.760,183.478 92.349 C 184.401 91.937,185.428 91.600,185.759 91.600 C 186.091 91.600,186.776 91.442,187.281 91.249 C 192.234 89.359,202.591 88.908,210.000 90.259 M51.544 104.876 C 54.214 105.936,55.591 106.624,55.595 106.900 C 55.598 107.065,55.849 107.200,56.153 107.200 C 57.770 107.200,62.304 113.233,63.360 116.792 C 64.423 120.370,63.845 128.468,62.447 129.600 C 62.311 129.710,61.879 130.430,61.486 131.200 C 58.299 137.446,47.795 141.678,41.519 139.244 C 36.762 137.399,36.336 137.138,33.601 134.393 C 27.399 128.169,26.722 117.662,32.092 111.000 C 33.337 109.456,33.967 108.846,35.200 107.994 C 35.970 107.462,36.833 106.800,37.119 106.523 C 37.683 105.975,40.857 104.893,43.400 104.381 C 45.305 103.997,50.058 104.286,51.544 104.876 M356.431 104.406 C 358.340 104.768,361.869 106.168,362.400 106.773 C 362.510 106.899,363.094 107.256,363.698 107.567 C 368.198 109.887,371.581 117.839,370.737 124.115 C 370.083 128.971,365.400 136.800,363.149 136.800 C 362.948 136.800,362.113 137.215,361.292 137.722 C 359.053 139.106,356.709 139.650,352.936 139.660 C 349.568 139.670,348.506 139.427,345.400 137.939 C 341.637 136.136,337.816 132.331,337.026 129.600 C 336.867 129.050,336.474 128.019,336.154 127.310 C 331.033 115.964,343.446 101.943,356.431 104.406 M294.246 113.689 C 294.881 114.178,295.627 114.886,295.904 115.262 C 296.181 115.638,296.901 116.457,297.504 117.081 C 300.618 120.304,304.314 124.375,305.200 125.558 C 305.750 126.293,306.655 127.457,307.210 128.147 C 307.766 128.836,308.458 129.871,308.749 130.446 C 309.039 131.021,309.710 131.958,310.238 132.528 C 310.767 133.098,311.200 133.675,311.200 133.809 C 311.200 133.944,311.629 134.626,312.154 135.327 C 315.617 139.947,323.484 154.723,325.398 160.200 C 325.783 161.300,326.331 162.740,326.617 163.400 C 327.622 165.720,329.896 173.052,330.591 176.209 C 330.977 177.964,331.430 179.760,331.598 180.200 C 332.484 182.531,333.735 190.382,333.372 191.330 C 333.156 191.891,332.045 192.138,326.800 192.789 C 320.204 193.608,313.952 195.031,308.400 196.978 C 307.410 197.325,306.287 197.717,305.904 197.850 C 305.522 197.982,305.280 198.205,305.366 198.345 C 305.453 198.485,305.080 198.627,304.538 198.659 C 303.151 198.742,294.322 203.151,294.610 203.617 C 294.741 203.827,294.451 204.000,293.967 204.000 C 293.239 204.000,289.021 206.355,287.427 207.652 C 287.192 207.843,285.383 209.215,283.407 210.700 C 279.348 213.750,274.352 218.576,270.054 223.600 C 265.766 228.613,265.621 228.797,264.927 230.154 C 264.576 230.839,264.177 231.490,264.040 231.600 C 263.564 231.984,261.710 235.024,260.016 238.200 C 256.942 243.958,256.596 244.702,254.798 249.400 C 254.115 251.185,252.027 258.293,251.802 259.600 C 251.669 260.370,251.227 262.440,250.820 264.200 C 247.948 276.603,249.442 298.418,253.837 308.260 C 254.147 308.954,254.400 309.688,254.400 309.891 C 254.400 311.481,258.708 320.337,262.840 327.241 C 264.592 330.169,264.568 330.820,262.669 331.780 C 261.971 332.133,261.130 332.593,260.800 332.803 C 259.331 333.734,251.605 337.200,250.997 337.200 C 250.627 337.200,249.846 337.448,249.262 337.751 C 246.868 338.994,242.629 340.564,239.400 341.402 C 238.300 341.688,236.230 342.281,234.800 342.720 C 233.370 343.159,231.750 343.610,231.200 343.722 C 230.650 343.834,228.940 344.217,227.400 344.573 C 208.019 349.061,181.104 348.177,161.600 342.413 C 153.217 339.935,149.091 338.490,146.200 337.020 C 145.100 336.461,144.020 336.003,143.800 336.002 C 143.046 335.999,136.722 332.661,136.532 332.166 C 136.298 331.557,137.265 329.610,139.049 327.099 C 139.792 326.054,140.401 325.064,140.402 324.899 C 140.403 324.735,140.942 323.790,141.600 322.800 C 142.258 321.810,142.797 320.685,142.798 320.300 C 142.799 319.915,142.980 319.600,143.200 319.600 C 143.420 319.600,143.600 319.433,143.600 319.228 C 143.600 319.023,144.117 317.718,144.748 316.328 C 145.379 314.938,146.384 312.450,146.980 310.800 C 147.576 309.150,148.207 307.440,148.382 307.000 C 148.910 305.673,149.910 301.938,150.364 299.600 C 150.599 298.390,151.100 295.960,151.477 294.200 C 152.444 289.686,152.433 270.291,151.461 266.400 C 151.104 264.970,150.809 263.046,150.806 262.124 C 150.803 261.202,150.649 260.354,150.463 260.239 C 150.278 260.125,149.807 258.671,149.415 257.009 C 149.024 255.347,148.545 253.890,148.352 253.770 C 148.158 253.651,148.000 253.191,148.000 252.749 C 148.000 251.866,145.898 246.392,144.948 244.800 C 144.619 244.250,144.241 243.440,144.106 243.000 C 143.599 241.337,140.428 235.601,138.158 232.241 C 136.861 230.321,135.620 228.448,135.400 228.080 C 135.180 227.712,134.720 227.139,134.378 226.806 C 134.036 226.473,133.081 225.300,132.255 224.200 C 130.733 222.173,124.888 216.035,123.149 214.638 C 122.627 214.219,121.465 213.229,120.567 212.438 C 118.361 210.495,117.456 209.782,116.126 208.939 C 115.507 208.547,114.100 207.577,113.000 206.784 C 111.900 205.992,109.560 204.571,107.800 203.626 C 106.040 202.681,104.420 201.780,104.200 201.623 C 103.980 201.466,102.900 201.008,101.800 200.606 C 100.700 200.203,99.710 199.762,99.600 199.626 C 99.490 199.489,98.590 199.046,97.600 198.641 C 96.610 198.236,95.440 197.745,95.000 197.551 C 89.650 195.191,77.045 192.635,68.326 192.141 C 63.757 191.883,63.698 191.800,64.761 187.182 C 65.223 185.179,65.600 183.214,65.600 182.816 C 65.600 182.418,65.854 181.216,66.165 180.146 C 66.476 179.076,67.220 176.310,67.818 174.000 C 68.416 171.690,69.301 168.720,69.783 167.400 C 70.266 166.080,70.857 164.460,71.095 163.800 C 71.648 162.273,73.844 156.991,74.613 155.340 C 74.936 154.646,75.200 153.896,75.200 153.673 C 75.200 153.449,75.335 153.207,75.500 153.133 C 75.833 152.985,79.859 144.944,80.068 144.010 C 80.141 143.685,80.380 143.201,80.600 142.933 C 81.507 141.832,86.400 134.396,86.400 134.119 C 86.400 134.022,87.120 133.090,88.000 132.046 C 88.880 131.002,89.600 130.004,89.600 129.827 C 89.600 129.650,90.146 128.852,90.814 128.053 C 91.482 127.254,92.157 126.414,92.314 126.187 C 92.948 125.270,97.012 120.535,97.973 119.593 C 98.538 119.039,99.556 117.959,100.236 117.193 C 105.335 111.446,105.478 111.569,105.739 121.930 C 106.100 136.272,108.509 146.891,114.053 158.575 C 114.464 159.441,114.800 160.386,114.800 160.675 C 114.800 160.964,114.950 161.200,115.134 161.200 C 115.317 161.200,116.288 162.775,117.292 164.700 C 119.117 168.201,122.254 173.111,123.394 174.252 C 123.727 174.585,124.000 175.021,124.000 175.221 C 124.000 177.227,137.754 190.551,145.438 195.988 C 151.545 200.309,154.939 202.112,165.800 206.802 C 166.240 206.992,167.230 207.339,168.000 207.574 C 168.770 207.809,170.840 208.455,172.600 209.008 C 188.066 213.873,208.696 213.852,225.200 208.956 C 232.131 206.900,244.007 201.693,246.648 199.552 C 246.894 199.352,247.851 198.786,248.773 198.294 C 255.828 194.534,270.132 180.852,275.637 172.600 C 276.371 171.500,277.203 170.362,277.486 170.071 C 277.768 169.781,278.000 169.361,278.000 169.139 C 278.000 168.917,278.616 167.805,279.370 166.668 C 280.123 165.531,280.862 164.105,281.013 163.500 C 281.163 162.895,281.447 162.400,281.643 162.400 C 281.840 162.400,282.000 162.029,282.000 161.576 C 282.000 161.123,282.180 160.864,282.400 161.000 C 282.620 161.136,282.800 160.917,282.800 160.513 C 282.800 160.109,283.043 159.423,283.339 158.989 C 284.172 157.771,286.975 150.586,288.094 146.800 C 290.907 137.282,292.046 129.699,292.210 119.400 C 292.333 111.622,292.167 112.087,294.246 113.689 " stroke="none" fill="#fbfbfb" fill-rule="evenodd"></path><path id="path2" d="M195.000 89.952 C 194.340 90.094,196.950 90.216,200.800 90.224 C 204.968 90.234,207.153 90.120,206.200 89.943 C 204.274 89.586,196.680 89.592,195.000 89.952 M189.664 90.873 C 186.855 91.501,188.006 91.644,191.030 91.044 C 192.554 90.741,193.260 90.492,192.600 90.490 C 191.940 90.487,190.619 90.660,189.664 90.873 M209.600 90.850 C 211.083 91.191,215.505 92.451,218.705 93.445 C 219.281 93.623,219.297 93.593,218.800 93.267 C 217.726 92.564,211.850 90.848,209.800 90.640 L 207.800 90.436 209.600 90.850 M183.593 92.757 C 178.107 94.798,171.953 98.608,167.349 102.816 C 164.456 105.460,158.918 112.251,159.324 112.657 C 159.436 112.770,160.300 111.723,161.244 110.331 C 166.049 103.242,174.697 96.663,183.800 93.171 C 186.000 92.328,187.530 91.638,187.200 91.638 C 186.870 91.639,185.247 92.142,183.593 92.757 M219.633 93.753 C 220.066 94.151,225.750 96.832,225.400 96.474 C 224.889 95.951,220.345 93.600,219.844 93.600 C 219.637 93.600,219.542 93.669,219.633 93.753 M226.786 97.491 C 238.923 106.219,245.874 116.348,248.411 129.000 C 248.808 130.980,249.148 132.187,249.166 131.683 C 249.333 127.139,244.666 115.444,240.516 110.009 C 236.607 104.888,230.235 98.927,227.000 97.362 L 225.800 96.782 226.786 97.491 M42.200 104.945 C 35.974 106.576,30.179 112.288,29.402 117.557 L 29.190 119.000 29.730 117.400 C 32.787 108.343,41.681 103.099,50.183 105.339 C 52.830 106.037,53.756 105.923,51.338 105.197 C 48.968 104.486,44.429 104.361,42.200 104.945 M348.800 104.967 C 345.854 105.855,344.235 106.671,342.146 108.322 C 340.193 109.866,336.793 114.518,336.807 115.628 C 336.811 115.943,337.359 115.210,338.025 114.000 C 344.661 101.935,360.589 101.851,368.288 113.840 C 368.748 114.556,368.759 114.551,368.488 113.758 C 366.421 107.716,355.645 102.904,348.800 104.967 M53.200 106.190 C 53.200 106.294,53.785 106.681,54.500 107.049 C 58.005 108.853,60.996 112.409,62.506 116.565 C 63.085 118.157,63.196 118.298,63.015 117.210 C 62.670 115.135,61.435 112.845,59.422 110.550 C 57.377 108.216,53.200 105.290,53.200 106.190 M158.304 114.100 C 157.392 115.495,155.929 118.462,156.079 118.612 C 156.152 118.686,156.883 117.498,157.703 115.973 C 159.166 113.248,159.462 112.328,158.304 114.100 M292.642 114.055 C 292.534 114.575,292.378 118.600,292.295 123.000 C 292.212 127.400,292.279 130.190,292.443 129.200 C 292.607 128.210,292.754 124.385,292.770 120.700 C 292.787 116.865,292.959 114.000,293.171 114.000 C 295.381 114.000,311.718 134.954,316.974 144.530 C 317.799 146.032,318.565 147.168,318.678 147.055 C 319.592 146.141,306.529 127.308,300.340 120.617 C 293.709 113.449,292.909 112.767,292.642 114.055 M101.880 116.054 C 100.456 117.454,98.699 119.320,97.974 120.200 C 97.248 121.080,98.356 120.135,100.435 118.100 C 102.514 116.065,104.347 114.400,104.508 114.400 C 104.668 114.400,104.816 117.235,104.835 120.700 C 104.854 124.165,105.004 127.900,105.168 129.000 C 105.332 130.100,105.384 127.220,105.284 122.600 C 105.067 112.647,105.160 112.826,101.880 116.054 M336.039 118.392 C 335.485 120.976,335.482 123.759,336.031 125.738 C 336.653 127.978,336.754 127.389,336.279 124.287 C 335.980 122.335,335.992 120.882,336.322 119.110 C 336.879 116.112,336.652 115.535,336.039 118.392 M369.800 122.000 C 369.800 124.895,369.935 126.501,370.148 126.122 C 370.339 125.780,370.495 123.925,370.495 122.000 C 370.495 120.075,370.339 118.220,370.148 117.878 C 369.935 117.499,369.800 119.105,369.800 122.000 M63.268 121.800 C 63.260 123.929,63.371 124.732,63.600 124.200 C 64.026 123.208,64.026 120.930,63.600 119.600 C 63.382 118.918,63.276 119.618,63.268 121.800 M154.870 121.286 C 153.707 124.233,152.706 127.921,152.909 128.508 C 153.002 128.779,153.280 128.076,153.525 126.947 C 153.771 125.818,154.430 123.676,154.991 122.186 C 155.552 120.696,155.942 119.408,155.857 119.324 C 155.773 119.240,155.329 120.123,154.870 121.286 M28.928 122.000 C 28.928 123.430,29.001 124.015,29.089 123.300 C 29.178 122.585,29.178 121.415,29.089 120.700 C 29.001 119.985,28.928 120.570,28.928 122.000 M94.158 124.524 C 84.775 135.902,70.704 160.980,70.809 166.136 C 70.820 166.636,72.504 162.693,73.259 160.400 C 75.882 152.440,85.516 136.034,93.198 126.446 C 95.157 124.001,96.634 122.011,96.480 122.024 C 96.326 122.037,95.281 123.162,94.158 124.524 M29.423 126.181 C 30.323 132.018,37.159 138.481,42.942 138.966 C 43.854 139.042,44.240 139.030,43.800 138.939 C 36.887 137.507,32.129 133.345,29.921 126.800 C 29.278 124.896,29.212 124.813,29.423 126.181 M62.652 126.587 C 61.177 132.217,56.406 136.859,50.400 138.509 C 47.955 139.180,47.913 139.211,49.695 139.020 C 55.214 138.428,63.941 130.053,63.118 126.137 C 63.003 125.590,62.883 125.706,62.652 126.587 M368.325 129.518 C 366.250 133.923,361.731 137.467,356.712 138.625 L 354.200 139.204 356.307 139.020 C 361.400 138.575,370.587 130.626,369.523 127.586 C 369.455 127.393,368.916 128.262,368.325 129.518 M336.804 128.021 C 336.830 132.028,345.904 139.310,350.690 139.167 C 351.414 139.145,351.003 138.940,349.509 138.578 C 344.475 137.358,340.016 133.923,337.881 129.621 C 337.287 128.423,336.802 127.703,336.804 128.021 M152.269 130.756 C 152.121 131.495,152.022 132.753,152.049 133.550 C 152.086 134.649,152.182 134.418,152.448 132.600 C 152.831 129.971,152.699 128.605,152.269 130.756 M105.657 132.200 C 105.646 132.860,105.877 134.570,106.171 136.000 C 106.464 137.430,106.712 138.150,106.721 137.600 C 106.730 137.050,106.498 135.340,106.207 133.800 C 105.915 132.260,105.668 131.540,105.657 132.200 M291.286 134.367 C 291.019 136.219,290.872 137.805,290.959 137.893 C 291.226 138.159,292.106 132.642,291.933 131.794 C 291.844 131.357,291.553 132.515,291.286 134.367 M249.331 139.000 C 249.334 143.161,249.426 144.387,249.633 143.000 C 250.026 140.355,250.029 136.585,249.640 134.600 C 249.432 133.539,249.328 135.020,249.331 139.000 M151.742 138.600 C 151.741 140.580,151.808 141.440,151.892 140.512 C 151.976 139.584,151.977 137.964,151.895 136.912 C 151.812 135.860,151.743 136.620,151.742 138.600 M289.510 142.674 C 287.884 149.126,287.893 149.082,288.321 148.400 C 288.870 147.526,290.871 139.655,290.724 138.949 C 290.656 138.619,290.110 140.295,289.510 142.674 M107.019 140.150 C 107.898 145.921,116.059 166.875,117.044 165.890 C 117.157 165.777,116.468 164.180,115.514 162.342 C 112.371 156.285,110.443 151.316,108.165 143.400 C 107.405 140.760,106.889 139.298,107.019 140.150 M152.028 144.633 C 152.044 145.715,152.218 146.960,152.416 147.400 C 152.648 147.916,152.691 147.276,152.535 145.600 C 152.242 142.439,151.990 141.958,152.028 144.633 M248.640 146.900 C 248.000 151.055,247.971 151.432,248.356 150.565 C 248.781 149.606,249.390 145.200,249.097 145.200 C 248.990 145.200,248.784 145.965,248.640 146.900 M318.819 147.700 C 318.922 148.256,322.768 155.687,322.781 155.357 C 322.804 154.813,319.294 147.600,319.007 147.600 C 318.893 147.600,318.808 147.645,318.819 147.700 M153.029 150.200 C 153.163 151.080,153.444 152.070,153.654 152.400 C 154.113 153.124,153.686 150.628,153.141 149.400 C 152.898 148.854,152.863 149.108,153.029 150.200 M286.590 152.290 C 285.701 154.747,282.638 161.676,281.722 163.300 C 281.629 163.465,281.666 163.600,281.804 163.600 C 282.410 163.600,288.293 149.759,287.868 149.334 C 287.783 149.250,287.208 150.580,286.590 152.290 M247.400 152.400 C 247.250 152.873,247.217 153.350,247.327 153.460 C 247.437 153.570,247.650 153.273,247.800 152.800 C 247.950 152.327,247.983 151.850,247.873 151.740 C 247.763 151.630,247.550 151.927,247.400 152.400 M154.010 153.628 C 153.931 158.524,164.850 173.758,171.800 178.450 C 172.900 179.192,173.895 179.925,174.010 180.079 C 174.399 180.593,182.993 184.800,183.600 184.773 C 183.930 184.758,183.750 184.547,183.200 184.303 C 169.436 178.213,160.780 169.602,155.575 156.819 C 154.720 154.719,154.016 153.283,154.010 153.628 M246.832 154.333 C 246.814 154.626,246.237 156.156,245.550 157.733 C 240.542 169.215,231.973 177.934,220.328 183.398 C 218.718 184.153,217.620 184.778,217.889 184.786 C 218.908 184.816,228.395 179.812,229.200 178.820 C 229.310 178.684,230.300 177.921,231.400 177.123 C 237.672 172.575,248.233 157.158,247.055 154.271 C 246.924 153.949,246.853 153.969,246.832 154.333 M323.400 157.400 C 323.770 158.280,324.443 159.949,324.895 161.108 C 325.347 162.268,325.802 163.132,325.905 163.029 C 326.135 162.799,323.672 156.756,323.122 156.200 C 322.904 155.980,323.029 156.520,323.400 157.400 M326.203 164.400 C 326.677 166.015,327.249 166.777,326.954 165.400 C 326.812 164.740,326.520 164.020,326.303 163.800 C 326.045 163.537,326.011 163.743,326.203 164.400 M280.722 164.948 C 280.435 165.469,279.791 166.639,279.292 167.548 C 278.792 168.456,278.460 169.200,278.554 169.200 C 278.754 169.200,280.871 165.715,281.287 164.700 C 281.706 163.679,281.330 163.844,280.722 164.948 M117.448 166.900 C 124.770 179.302,137.586 192.595,148.200 198.794 C 150.372 200.062,149.575 199.341,146.200 196.982 C 134.991 189.152,125.737 179.572,119.663 169.514 C 118.639 167.817,117.654 166.422,117.476 166.414 C 117.298 166.406,117.286 166.625,117.448 166.900 M70.224 167.300 C 70.140 167.575,69.785 168.700,69.435 169.800 C 68.280 173.422,66.800 178.954,66.817 179.583 C 66.826 179.922,67.603 177.590,68.544 174.400 C 69.485 171.210,70.390 168.195,70.554 167.700 C 70.719 167.205,70.746 166.800,70.614 166.800 C 70.483 166.800,70.307 167.025,70.224 167.300 M327.200 167.122 C 327.200 167.608,329.136 173.052,329.170 172.662 C 329.213 172.177,327.554 166.800,327.361 166.800 C 327.272 166.800,327.200 166.945,327.200 167.122 M275.365 173.466 C 260.591 194.656,238.040 208.262,210.800 212.421 C 206.455 213.085,206.218 213.156,208.995 212.967 C 227.320 211.718,248.487 201.944,263.547 187.777 C 268.432 183.182,276.107 173.937,278.047 170.312 C 278.975 168.578,277.850 169.901,275.365 173.466 M329.200 173.306 C 329.200 173.437,329.726 175.672,330.369 178.272 C 333.474 190.835,333.468 191.312,330.200 191.644 L 327.800 191.887 330.400 191.844 L 333.000 191.800 333.121 190.564 C 333.187 189.884,332.875 187.544,332.427 185.364 C 330.991 178.371,329.200 171.678,329.200 173.306 M66.082 182.375 C 65.817 183.522,65.618 184.852,65.640 185.331 C 65.662 185.809,65.935 185.037,66.245 183.615 C 66.556 182.194,66.755 180.864,66.687 180.660 C 66.619 180.456,66.346 181.228,66.082 182.375 M184.620 185.158 C 184.829 185.355,185.630 185.623,186.400 185.754 L 187.800 185.993 186.400 185.427 C 184.726 184.750,184.084 184.653,184.620 185.158 M215.219 185.242 C 210.932 186.954,201.173 187.822,194.200 187.111 C 191.991 186.886,191.653 186.916,192.600 187.252 C 196.509 188.644,213.286 187.226,216.736 185.212 C 217.647 184.680,216.573 184.702,215.219 185.242 M188.600 186.400 C 189.040 186.589,189.850 186.738,190.400 186.732 L 191.400 186.720 190.400 186.400 C 189.850 186.224,189.040 186.074,188.600 186.068 L 187.800 186.056 188.600 186.400 M64.995 187.900 C 64.862 188.725,64.670 189.809,64.567 190.309 C 64.311 191.553,65.268 191.843,69.743 191.877 L 73.400 191.905 69.255 191.494 L 65.110 191.084 65.375 188.742 C 65.667 186.160,65.378 185.519,64.995 187.900 M76.000 192.449 C 90.181 195.067,95.549 196.824,106.000 202.270 C 125.876 212.627,141.670 231.482,148.601 253.126 C 148.975 254.295,149.365 255.168,149.467 255.066 C 150.186 254.347,144.517 241.238,140.633 234.638 C 127.266 211.926,100.206 194.116,76.200 192.231 L 73.800 192.042 76.000 192.449 M322.400 192.615 L 320.200 193.141 322.800 192.908 C 324.230 192.780,325.850 192.539,326.400 192.372 C 328.207 191.824,324.861 192.027,322.400 192.615 M316.000 193.859 C 284.966 202.135,262.136 223.777,252.447 254.105 C 251.761 256.252,251.210 258.232,251.223 258.505 C 251.235 258.777,252.109 256.387,253.165 253.193 C 258.626 236.670,268.805 221.742,281.400 211.782 C 282.500 210.912,283.490 210.092,283.600 209.960 C 285.084 208.182,297.859 200.758,302.800 198.802 C 304.010 198.323,305.276 197.790,305.614 197.616 C 306.560 197.130,313.536 194.973,316.000 194.404 C 317.210 194.125,318.650 193.754,319.200 193.580 L 320.200 193.263 319.200 193.268 C 318.650 193.271,317.210 193.537,316.000 193.859 M150.200 199.954 C 154.838 204.549,177.987 212.390,188.693 212.991 C 192.058 213.180,191.989 213.158,187.000 212.440 C 179.208 211.318,171.658 209.475,166.400 207.412 C 165.630 207.110,164.370 206.626,163.600 206.338 C 162.830 206.049,159.410 204.405,156.000 202.685 C 152.590 200.965,149.980 199.736,150.200 199.954 M195.718 213.498 C 197.433 213.573,200.133 213.572,201.718 213.497 C 203.303 213.421,201.900 213.359,198.600 213.360 C 195.300 213.361,194.003 213.422,195.718 213.498 M149.793 256.800 C 150.255 258.661,151.945 267.383,152.351 270.000 L 152.754 272.600 152.561 269.800 C 152.334 266.504,150.552 257.357,149.958 256.438 C 149.635 255.940,149.599 256.019,149.793 256.800 M250.284 262.431 C 248.889 269.441,248.623 272.373,248.636 280.600 C 248.648 288.404,249.432 296.774,250.224 297.553 C 250.513 297.838,250.148 294.808,249.507 291.600 C 248.356 285.841,249.138 268.593,250.862 261.724 C 251.094 260.802,251.209 259.826,251.118 259.555 C 251.028 259.284,250.652 260.578,250.284 262.431 M152.967 280.200 C 152.967 284.380,153.026 286.036,153.098 283.879 C 153.171 281.723,153.170 278.303,153.098 276.279 C 153.025 274.256,152.966 276.020,152.967 280.200 M152.271 290.800 C 152.095 292.450,151.692 294.936,151.376 296.325 C 150.812 298.797,150.624 300.710,150.979 300.355 C 151.350 299.983,152.843 290.319,152.719 289.088 C 152.640 288.299,152.466 288.962,152.271 290.800 M250.475 298.600 C 250.486 299.040,250.632 299.940,250.800 300.600 L 251.105 301.800 251.125 300.600 C 251.135 299.940,250.989 299.040,250.800 298.600 L 250.456 297.800 250.475 298.600 M149.682 304.034 C 147.717 311.092,141.831 324.669,139.987 326.400 C 139.057 327.273,137.165 330.935,137.270 331.658 C 137.490 333.170,150.570 338.695,161.341 341.825 C 188.066 349.591,218.731 348.631,244.600 339.216 C 254.893 335.470,263.329 331.435,263.516 330.167 C 263.580 329.735,262.709 327.855,261.582 325.990 C 257.630 319.454,254.674 312.803,252.546 305.655 C 251.932 303.595,251.367 302.099,251.290 302.331 C 250.717 304.048,257.446 320.100,261.602 326.930 C 262.515 328.431,263.175 329.888,263.068 330.166 C 262.840 330.761,253.866 335.243,250.046 336.670 C 248.591 337.214,245.960 338.195,244.200 338.850 C 214.392 349.942,176.997 348.926,146.800 336.205 C 136.764 331.978,136.856 332.074,139.257 328.362 C 144.147 320.804,151.269 303.971,150.713 301.287 C 150.651 300.986,150.187 302.222,149.682 304.034 " stroke="none" fill="#f9ae98" fill-rule="evenodd"></path><path id="path3" d="M198.900 90.291 C 199.725 90.378,201.075 90.378,201.900 90.291 C 202.725 90.205,202.050 90.134,200.400 90.134 C 198.750 90.134,198.075 90.205,198.900 90.291 M225.400 97.007 C 225.840 97.366,226.560 97.835,227.000 98.051 L 227.800 98.444 227.000 97.793 C 226.560 97.434,225.840 96.965,225.400 96.749 L 224.600 96.356 225.400 97.007 M228.000 98.525 C 228.000 98.624,228.661 99.209,229.468 99.825 C 230.276 100.441,230.811 100.741,230.656 100.491 C 230.340 99.979,228.000 98.247,228.000 98.525 M232.287 102.009 C 232.995 102.751,233.642 103.278,233.725 103.179 C 233.808 103.081,233.229 102.473,232.438 101.829 L 231.000 100.658 232.287 102.009 M165.800 104.800 C 164.717 105.900,164.003 106.782,164.215 106.759 C 164.591 106.720,168.280 102.800,167.941 102.800 C 167.847 102.800,166.883 103.700,165.800 104.800 M44.033 104.945 C 44.125 105.025,45.640 105.182,47.400 105.293 C 49.160 105.405,50.150 105.357,49.600 105.188 C 48.605 104.881,43.716 104.668,44.033 104.945 M351.900 105.089 C 352.615 105.178,353.785 105.178,354.500 105.089 C 355.215 105.001,354.630 104.928,353.200 104.928 C 351.770 104.928,351.185 105.001,351.900 105.089 M51.200 105.734 C 51.200 105.837,51.781 106.124,52.491 106.372 C 53.201 106.619,53.606 106.657,53.391 106.456 C 52.935 106.029,51.200 105.458,51.200 105.734 M237.051 106.809 C 237.739 107.574,239.151 109.370,240.189 110.800 C 242.292 113.698,242.939 114.415,241.814 112.600 C 240.585 110.616,237.761 107.053,236.749 106.209 C 236.176 105.731,236.296 105.969,237.051 106.809 M162.935 108.100 C 161.910 109.248,160.290 111.600,160.525 111.600 C 160.623 111.600,161.451 110.610,162.365 109.400 C 164.079 107.130,164.346 106.522,162.935 108.100 M362.391 107.883 C 362.935 108.277,364.015 109.132,364.791 109.782 L 366.200 110.964 365.118 109.779 C 364.523 109.127,363.443 108.272,362.718 107.879 C 361.449 107.192,361.437 107.192,362.391 107.883 M340.175 110.900 L 339.000 112.200 340.300 111.025 C 341.015 110.379,341.600 109.794,341.600 109.725 C 341.600 109.416,341.270 109.688,340.175 110.900 M32.929 111.300 C 32.484 111.795,31.976 112.470,31.801 112.800 C 31.463 113.437,31.555 113.350,33.176 111.500 C 33.706 110.895,34.049 110.400,33.939 110.400 C 33.829 110.400,33.375 110.805,32.929 111.300 M366.799 112.300 C 367.322 113.015,367.813 113.600,367.889 113.600 C 368.193 113.600,367.201 112.100,366.545 111.567 C 366.113 111.216,366.210 111.496,366.799 112.300 M292.886 119.100 L 292.972 124.200 293.099 119.500 C 293.248 113.970,293.040 114.089,296.590 117.500 L 299.400 120.200 296.410 117.100 C 292.624 113.175,292.785 113.084,292.886 119.100 M368.467 115.220 C 368.701 115.892,368.967 116.367,369.057 116.276 C 369.256 116.078,368.501 114.000,368.231 114.000 C 368.127 114.000,368.233 114.549,368.467 115.220 M103.170 115.500 L 102.200 116.600 103.288 115.642 L 104.376 114.683 104.501 120.042 L 104.625 125.400 104.713 119.900 C 104.805 114.069,104.699 113.766,103.170 115.500 M156.537 118.226 C 155.976 119.450,155.588 120.521,155.673 120.606 C 155.758 120.692,156.302 119.690,156.880 118.381 C 157.459 117.071,157.848 116.000,157.744 116.000 C 157.641 116.000,157.097 117.002,156.537 118.226 M29.453 118.436 C 29.314 119.131,29.227 120.892,29.260 122.350 C 29.316 124.817,29.340 124.738,29.609 121.200 C 29.914 117.180,29.868 116.361,29.453 118.436 M97.832 120.895 C 96.165 122.708,94.800 124.334,94.800 124.509 C 94.800 124.684,95.373 124.147,96.074 123.314 C 96.775 122.481,98.254 120.855,99.360 119.700 C 100.467 118.545,101.258 117.600,101.119 117.600 C 100.979 117.600,99.500 119.083,97.832 120.895 M336.124 121.800 C 336.126 123.120,336.201 123.612,336.290 122.893 C 336.379 122.174,336.377 121.094,336.286 120.493 C 336.195 119.892,336.122 120.480,336.124 121.800 M300.800 122.200 C 301.546 122.970,302.247 123.600,302.357 123.600 C 302.467 123.600,301.946 122.970,301.200 122.200 C 300.454 121.430,299.753 120.800,299.643 120.800 C 299.533 120.800,300.054 121.430,300.800 122.200 M62.650 125.250 C 62.317 126.917,62.640 127.240,63.000 125.600 C 63.152 124.909,63.193 124.259,63.091 124.158 C 62.989 124.056,62.791 124.547,62.650 125.250 M247.256 125.200 C 247.256 125.530,247.411 126.160,247.600 126.600 C 247.817 127.104,247.944 127.178,247.944 126.800 C 247.944 126.470,247.789 125.840,247.600 125.400 C 247.383 124.896,247.256 124.822,247.256 125.200 M306.200 128.800 C 307.216 130.120,308.137 131.200,308.247 131.200 C 308.357 131.200,307.616 130.120,306.600 128.800 C 305.584 127.480,304.663 126.400,304.553 126.400 C 304.443 126.400,305.184 127.480,306.200 128.800 M30.229 127.600 C 30.376 128.150,30.664 128.870,30.867 129.200 C 31.125 129.617,31.157 129.495,30.971 128.800 C 30.824 128.250,30.536 127.530,30.333 127.200 C 30.075 126.783,30.043 126.905,30.229 127.600 M104.893 128.800 C 104.893 129.570,104.975 129.885,105.076 129.500 C 105.176 129.115,105.176 128.485,105.076 128.100 C 104.975 127.715,104.893 128.030,104.893 128.800 M153.056 128.484 C 152.921 128.988,152.827 129.760,152.846 130.200 C 152.865 130.640,153.045 130.298,153.246 129.440 C 153.636 127.778,153.470 126.940,153.056 128.484 M292.246 130.246 C 292.100 131.493,292.059 132.593,292.157 132.690 C 292.254 132.788,292.461 131.854,292.615 130.615 C 292.770 129.377,292.810 128.277,292.705 128.171 C 292.599 128.066,292.393 128.999,292.246 130.246 M337.200 128.153 C 337.200 128.582,338.390 130.800,338.621 130.800 C 338.731 130.800,338.523 130.215,338.159 129.500 C 337.417 128.040,337.200 127.736,337.200 128.153 M60.896 130.149 C 60.657 130.673,59.870 131.799,59.146 132.651 C 58.039 133.954,58.006 134.042,58.940 133.207 C 60.151 132.124,61.800 129.667,61.511 129.377 C 61.411 129.278,61.135 129.625,60.896 130.149 M105.301 132.200 C 105.305 133.080,105.387 133.393,105.483 132.895 C 105.579 132.398,105.575 131.678,105.475 131.295 C 105.375 130.913,105.296 131.320,105.301 132.200 M365.481 133.117 C 364.667 133.951,364.000 134.768,364.000 134.932 C 364.000 135.245,364.742 134.547,366.370 132.700 C 367.799 131.079,367.194 131.363,365.481 133.117 M33.803 133.540 C 35.014 134.896,38.075 137.200,38.665 137.200 C 38.841 137.200,38.269 136.726,37.393 136.146 C 36.517 135.566,35.081 134.441,34.203 133.646 L 32.605 132.200 33.803 133.540 M248.901 133.800 C 248.905 134.680,248.987 134.993,249.083 134.495 C 249.179 133.998,249.175 133.278,249.075 132.895 C 248.975 132.513,248.896 132.920,248.901 133.800 M340.800 133.800 C 341.546 134.570,342.247 135.200,342.357 135.200 C 342.467 135.200,341.946 134.570,341.200 133.800 C 340.454 133.030,339.753 132.400,339.643 132.400 C 339.533 132.400,340.054 133.030,340.800 133.800 M152.148 138.800 C 152.148 141.110,152.214 142.055,152.295 140.900 C 152.376 139.745,152.376 137.855,152.295 136.700 C 152.214 135.545,152.148 136.490,152.148 138.800 M291.022 137.822 C 290.872 138.625,290.828 139.362,290.926 139.460 C 291.024 139.557,291.227 138.981,291.378 138.178 C 291.528 137.375,291.572 136.638,291.474 136.540 C 291.376 136.443,291.173 137.019,291.022 137.822 M312.349 137.400 C 312.565 137.840,313.034 138.560,313.393 139.000 L 314.044 139.800 313.651 139.000 C 313.435 138.560,312.966 137.840,312.607 137.400 L 311.956 136.600 312.349 137.400 M45.500 139.082 C 45.995 139.178,46.805 139.178,47.300 139.082 C 47.795 138.987,47.390 138.909,46.400 138.909 C 45.410 138.909,45.005 138.987,45.500 139.082 M352.305 139.083 C 352.802 139.179,353.522 139.175,353.905 139.075 C 354.287 138.975,353.880 138.896,353.000 138.901 C 352.120 138.905,351.807 138.987,352.305 139.083 M248.909 143.600 C 248.909 144.590,248.987 144.995,249.082 144.500 C 249.178 144.005,249.178 143.195,249.082 142.700 C 248.987 142.205,248.909 142.610,248.909 143.600 M79.600 146.800 C 79.151 147.680,78.874 148.400,78.984 148.400 C 79.094 148.400,79.551 147.680,80.000 146.800 C 80.449 145.920,80.726 145.200,80.616 145.200 C 80.506 145.200,80.049 145.920,79.600 146.800 M152.828 147.633 C 152.844 148.165,153.019 148.960,153.219 149.400 C 153.471 149.958,153.507 149.715,153.338 148.600 C 153.055 146.743,152.787 146.236,152.828 147.633 M288.044 149.244 C 287.798 149.951,287.666 150.600,287.752 150.685 C 287.838 150.771,288.109 150.262,288.356 149.556 C 288.602 148.849,288.734 148.200,288.648 148.115 C 288.562 148.029,288.291 148.538,288.044 149.244 M319.882 150.589 C 320.473 151.793,321.023 152.711,321.105 152.629 C 321.284 152.449,319.267 148.400,318.998 148.400 C 318.894 148.400,319.292 149.385,319.882 150.589 M109.429 150.000 C 109.576 150.550,109.864 151.270,110.067 151.600 C 110.325 152.017,110.357 151.895,110.171 151.200 C 110.024 150.650,109.736 149.930,109.533 149.600 C 109.275 149.183,109.243 149.305,109.429 150.000 M247.646 150.467 C 247.621 150.834,247.496 151.464,247.370 151.867 C 247.152 152.562,247.163 152.563,247.597 151.887 C 247.848 151.496,247.973 150.866,247.873 150.487 C 247.711 149.868,247.688 149.866,247.646 150.467 M287.115 151.810 C 286.992 152.245,286.769 152.960,286.620 153.400 C 286.471 153.840,286.642 153.694,287.000 153.076 C 287.358 152.458,287.581 151.742,287.495 151.486 C 287.410 151.230,287.239 151.376,287.115 151.810 M246.629 153.829 C 246.481 154.415,246.438 154.972,246.532 155.066 C 246.627 155.160,246.824 154.758,246.971 154.171 C 247.119 153.585,247.162 153.028,247.068 152.934 C 246.973 152.840,246.776 153.242,246.629 153.829 M111.634 155.800 C 111.634 156.020,111.978 156.830,112.400 157.600 C 112.822 158.370,113.166 158.820,113.166 158.600 C 113.166 158.380,112.822 157.570,112.400 156.800 C 111.978 156.030,111.634 155.580,111.634 155.800 M74.272 157.819 C 73.332 159.789,73.464 160.124,74.447 158.262 C 74.893 157.416,75.187 156.654,75.101 156.567 C 75.014 156.481,74.641 157.044,74.272 157.819 M284.865 157.417 C 284.195 158.888,284.323 159.202,285.047 157.865 C 285.386 157.240,285.588 156.654,285.496 156.563 C 285.405 156.471,285.121 156.856,284.865 157.417 M241.165 165.300 C 240.910 165.795,239.609 167.550,238.274 169.200 C 236.939 170.850,236.157 171.948,236.537 171.640 C 238.049 170.413,242.443 164.400,241.828 164.400 C 241.718 164.400,241.420 164.805,241.165 165.300 M159.962 165.400 C 160.190 165.840,160.754 166.650,161.215 167.200 C 161.787 167.882,161.922 167.946,161.638 167.400 C 161.410 166.960,160.846 166.150,160.385 165.600 C 159.813 164.918,159.678 164.854,159.962 165.400 M280.553 166.100 C 279.176 168.436,279.086 168.635,279.787 167.800 C 280.600 166.832,281.300 165.600,281.038 165.600 C 280.933 165.600,280.715 165.825,280.553 166.100 M165.800 172.800 C 166.883 173.900,167.847 174.800,167.941 174.800 C 168.280 174.800,164.591 170.880,164.215 170.841 C 164.003 170.818,164.717 171.700,165.800 172.800 M328.456 172.000 C 328.456 172.330,328.611 172.960,328.800 173.400 C 329.017 173.904,329.144 173.978,329.144 173.600 C 329.144 173.270,328.989 172.640,328.800 172.200 C 328.583 171.696,328.456 171.622,328.456 172.000 M232.985 174.900 L 231.000 177.000 233.100 175.015 C 235.051 173.171,235.383 172.800,235.085 172.800 C 235.022 172.800,234.077 173.745,232.985 174.900 M168.400 174.925 C 168.400 174.994,168.985 175.579,169.700 176.225 L 171.000 177.400 169.825 176.100 C 168.730 174.888,168.400 174.616,168.400 174.925 M67.829 176.629 C 67.681 177.215,67.638 177.772,67.732 177.866 C 67.827 177.960,68.024 177.558,68.171 176.971 C 68.319 176.385,68.362 175.828,68.268 175.734 C 68.173 175.640,67.976 176.042,67.829 176.629 M171.200 177.346 C 171.200 177.456,171.740 177.930,172.400 178.400 C 173.060 178.870,173.600 179.164,173.600 179.054 C 173.600 178.944,173.060 178.470,172.400 178.000 C 171.740 177.530,171.200 177.236,171.200 177.346 M126.624 180.200 C 129.072 183.277,133.142 187.495,136.200 190.124 C 137.520 191.260,136.334 189.941,133.564 187.194 C 130.794 184.447,127.670 181.210,126.621 180.000 L 124.714 177.800 126.624 180.200 M227.500 179.029 C 226.675 179.570,226.000 180.093,226.000 180.192 C 226.000 180.457,228.763 178.783,229.025 178.360 C 229.336 177.857,229.198 177.917,227.500 179.029 M265.046 186.140 C 259.231 192.058,259.040 192.453,264.530 187.208 C 266.917 184.928,271.527 179.928,271.140 180.040 C 271.063 180.063,268.321 182.808,265.046 186.140 M183.600 184.333 C 183.930 184.536,184.650 184.824,185.200 184.971 C 185.895 185.157,186.017 185.125,185.600 184.867 C 185.270 184.664,184.550 184.376,184.000 184.229 C 183.305 184.043,183.183 184.075,183.600 184.333 M187.000 185.600 C 187.440 185.789,188.070 185.944,188.400 185.944 C 188.778 185.944,188.704 185.817,188.200 185.600 C 187.760 185.411,187.130 185.256,186.800 185.256 C 186.422 185.256,186.496 185.383,187.000 185.600 M213.000 185.600 C 212.496 185.817,212.422 185.944,212.800 185.944 C 213.130 185.944,213.760 185.789,214.200 185.600 C 214.704 185.383,214.778 185.256,214.400 185.256 C 214.070 185.256,213.440 185.411,213.000 185.600 M199.507 187.490 C 200.226 187.579,201.306 187.577,201.907 187.486 C 202.508 187.395,201.920 187.322,200.600 187.324 C 199.280 187.326,198.788 187.401,199.507 187.490 M330.800 191.200 L 329.000 191.480 330.676 191.540 C 331.598 191.573,332.464 191.420,332.600 191.200 C 332.736 190.980,332.792 190.827,332.724 190.860 C 332.656 190.893,331.790 191.046,330.800 191.200 M70.105 191.487 C 70.714 191.579,71.614 191.577,72.105 191.482 C 72.597 191.387,72.100 191.311,71.000 191.314 C 69.900 191.317,69.497 191.395,70.105 191.487 M73.900 191.882 C 74.395 191.978,75.205 191.978,75.700 191.882 C 76.195 191.787,75.790 191.709,74.800 191.709 C 73.810 191.709,73.405 191.787,73.900 191.882 M325.500 191.882 C 325.995 191.978,326.805 191.978,327.300 191.882 C 327.795 191.787,327.390 191.709,326.400 191.709 C 325.410 191.709,325.005 191.787,325.500 191.882 M139.164 192.535 C 139.749 193.263,142.000 194.977,142.000 194.694 C 142.000 194.606,141.235 193.926,140.300 193.183 C 139.365 192.440,138.854 192.148,139.164 192.535 M257.000 193.460 C 255.795 194.536,255.705 194.685,256.636 194.063 C 257.741 193.324,259.132 191.976,258.749 192.015 C 258.667 192.023,257.880 192.673,257.000 193.460 M319.600 192.800 C 318.256 193.231,319.708 193.231,321.400 192.800 C 322.478 192.526,322.498 192.494,321.600 192.487 C 321.050 192.483,320.150 192.624,319.600 192.800 M86.000 194.000 C 87.368 194.438,88.419 194.438,87.400 194.000 C 86.960 193.811,86.240 193.662,85.800 193.668 C 85.157 193.677,85.196 193.743,86.000 194.000 M89.600 195.000 C 91.426 195.703,92.145 195.693,90.600 194.986 C 89.940 194.683,89.130 194.442,88.800 194.448 C 88.470 194.455,88.830 194.703,89.600 195.000 M309.600 195.400 C 308.170 195.916,307.190 196.352,307.422 196.369 C 307.654 196.386,309.094 195.963,310.622 195.430 C 312.150 194.896,313.130 194.460,312.800 194.461 C 312.470 194.462,311.030 194.884,309.600 195.400 M253.400 196.053 C 251.034 197.824,250.722 198.306,252.880 196.854 C 253.913 196.159,254.869 195.412,255.003 195.195 C 255.355 194.626,255.183 194.718,253.400 196.053 M92.033 195.744 C 92.125 195.823,92.740 196.008,93.400 196.156 C 94.276 196.352,94.438 196.315,94.000 196.018 C 93.460 195.653,91.632 195.398,92.033 195.744 M144.000 196.146 C 144.000 196.256,144.540 196.730,145.200 197.200 C 145.860 197.670,146.400 197.964,146.400 197.854 C 146.400 197.744,145.860 197.270,145.200 196.800 C 144.540 196.330,144.000 196.036,144.000 196.146 M94.800 196.534 C 94.800 196.637,95.381 196.924,96.091 197.172 C 96.801 197.419,97.206 197.457,96.991 197.256 C 96.535 196.829,94.800 196.258,94.800 196.534 M305.200 197.000 C 304.650 197.314,304.380 197.572,304.600 197.572 C 304.820 197.572,305.450 197.314,306.000 197.000 C 306.550 196.686,306.820 196.428,306.600 196.428 C 306.380 196.428,305.750 196.686,305.200 197.000 M302.500 198.012 C 301.161 198.551,301.411 198.824,302.800 198.340 C 303.460 198.110,304.000 197.849,304.000 197.761 C 304.000 197.524,303.513 197.605,302.500 198.012 M100.400 199.000 C 100.950 199.314,101.580 199.572,101.800 199.572 C 102.020 199.572,101.750 199.314,101.200 199.000 C 100.650 198.686,100.020 198.428,99.800 198.428 C 99.580 198.428,99.850 198.686,100.400 199.000 M247.100 200.229 C 245.605 201.040,245.696 201.378,247.200 200.600 C 247.860 200.259,248.400 199.894,248.400 199.790 C 248.400 199.532,248.357 199.547,247.100 200.229 M297.600 200.400 C 296.830 200.822,296.344 201.174,296.520 201.183 C 296.944 201.205,299.200 200.032,299.200 199.790 C 299.200 199.528,299.177 199.537,297.600 200.400 M244.300 201.829 C 242.805 202.640,242.896 202.978,244.400 202.200 C 245.060 201.859,245.600 201.494,245.600 201.390 C 245.600 201.132,245.557 201.147,244.300 201.829 M152.800 201.784 C 152.800 201.894,153.520 202.351,154.400 202.800 C 155.280 203.249,156.000 203.526,156.000 203.416 C 156.000 203.306,155.280 202.849,154.400 202.400 C 153.520 201.951,152.800 201.674,152.800 201.784 M108.800 203.221 C 109.842 203.930,111.600 204.828,111.600 204.650 C 111.600 204.428,108.839 202.798,108.477 202.806 C 108.325 202.809,108.470 202.996,108.800 203.221 M291.086 203.940 C 290.034 204.560,288.954 205.292,288.686 205.567 C 288.419 205.842,289.325 205.401,290.700 204.587 C 292.075 203.773,293.200 203.038,293.200 202.953 C 293.200 202.708,293.099 202.755,291.086 203.940 M159.600 205.367 C 160.590 205.879,161.850 206.415,162.400 206.560 C 162.950 206.704,162.251 206.278,160.846 205.611 C 157.847 204.190,156.998 204.023,159.600 205.367 M237.200 205.400 C 236.210 205.930,235.580 206.364,235.800 206.364 C 236.020 206.364,237.010 205.930,238.000 205.400 C 238.990 204.870,239.620 204.436,239.400 204.436 C 239.180 204.436,238.190 204.870,237.200 205.400 M112.000 204.963 C 112.000 205.063,113.485 206.180,115.300 207.444 C 133.557 220.165,146.933 240.347,151.389 261.898 C 156.110 284.732,151.641 309.219,139.257 328.362 C 136.856 332.074,136.764 331.978,146.800 336.205 C 176.997 348.926,214.392 349.942,244.200 338.850 C 245.960 338.195,248.591 337.214,250.046 336.670 C 253.866 335.243,262.840 330.761,263.068 330.166 C 263.175 329.888,262.515 328.431,261.600 326.930 C 253.616 313.817,249.200 299.145,248.558 283.600 C 248.325 277.969,248.487 274.923,249.451 266.800 C 249.595 265.590,249.598 264.704,249.459 264.831 C 249.145 265.117,248.393 268.789,248.155 271.200 C 247.841 274.389,247.768 292.980,248.067 293.600 C 248.227 293.930,248.658 295.812,249.026 297.782 C 249.395 299.752,249.845 301.642,250.027 301.982 C 250.210 302.322,250.469 303.451,250.603 304.491 C 250.737 305.531,251.016 306.486,251.223 306.614 C 251.430 306.742,251.607 307.422,251.616 308.124 C 251.625 308.826,252.165 310.390,252.816 311.600 C 254.132 314.045,254.299 314.890,253.400 314.545 C 253.070 314.418,252.800 314.493,252.800 314.711 C 252.800 314.928,253.159 315.201,253.598 315.315 C 254.037 315.430,254.500 315.856,254.627 316.262 C 254.754 316.668,255.020 317.270,255.218 317.600 C 255.416 317.930,255.868 318.830,256.223 319.600 C 256.577 320.370,257.032 321.313,257.234 321.695 C 257.435 322.077,257.600 322.827,257.600 323.362 C 257.600 324.702,257.992 325.600,258.577 325.600 C 259.095 325.600,260.667 327.275,261.489 328.703 C 262.024 329.633,261.982 329.662,259.286 330.205 C 258.545 330.354,257.697 330.891,257.339 331.437 C 256.767 332.310,253.704 334.000,252.693 334.000 C 252.470 334.000,252.074 334.293,251.813 334.650 C 251.551 335.007,250.857 335.300,250.269 335.300 C 249.681 335.300,249.200 335.473,249.200 335.685 C 249.200 335.912,248.553 335.961,247.629 335.805 C 246.236 335.570,245.982 335.656,245.383 336.570 C 244.784 337.484,244.442 337.600,242.354 337.600 C 240.621 337.600,240.000 337.745,240.000 338.151 C 240.000 338.938,239.167 339.524,237.673 339.787 C 236.961 339.913,235.656 340.304,234.774 340.657 C 233.650 341.107,232.590 341.222,231.233 341.042 C 229.557 340.820,229.271 340.885,229.102 341.532 C 228.899 342.308,227.342 342.796,225.050 342.804 C 224.363 342.807,222.900 343.084,221.800 343.420 C 220.700 343.756,218.124 344.101,216.076 344.186 C 214.028 344.272,212.118 344.536,211.832 344.773 C 210.955 345.501,189.367 345.390,185.000 344.636 C 183.020 344.294,180.410 344.003,179.200 343.990 C 176.338 343.959,171.772 342.808,170.000 341.670 C 169.047 341.059,168.281 340.851,167.600 341.020 C 165.328 341.584,159.045 339.904,158.544 338.598 C 158.327 338.032,156.560 337.542,154.334 337.431 C 153.528 337.391,151.771 336.783,150.429 336.079 C 149.086 335.376,147.653 334.800,147.243 334.800 C 145.804 334.800,143.612 333.635,143.855 333.000 C 144.358 331.691,143.650 330.996,142.773 331.937 C 141.261 333.560,139.044 332.284,139.791 330.221 C 140.330 328.729,142.007 325.474,142.377 325.200 C 142.835 324.861,145.756 319.479,146.269 318.029 C 146.536 317.274,147.035 316.500,147.377 316.309 C 147.720 316.117,148.012 315.654,148.026 315.280 C 148.095 313.525,149.482 310.198,149.769 311.101 C 149.924 311.592,149.920 312.205,149.760 312.464 C 149.560 312.788,149.689 312.852,150.167 312.668 C 150.551 312.521,150.941 312.400,151.033 312.400 C 151.463 312.400,151.131 311.073,150.556 310.498 C 149.859 309.802,150.018 306.743,150.799 305.801 C 151.019 305.537,151.398 304.349,151.643 303.160 C 151.887 301.972,152.262 300.190,152.474 299.200 C 154.258 290.890,154.417 274.344,152.790 266.400 C 151.421 259.721,150.981 257.847,150.111 255.000 C 145.468 239.805,137.670 227.094,126.260 216.126 C 121.442 211.494,112.000 204.103,112.000 204.963 M231.800 207.622 C 230.920 208.038,230.470 208.376,230.800 208.373 C 231.130 208.369,232.030 208.022,232.800 207.600 C 234.596 206.617,233.892 206.632,231.800 207.622 M283.005 209.503 C 277.178 213.875,264.000 227.741,264.000 229.501 C 264.000 229.843,264.154 229.662,267.775 225.062 C 272.646 218.875,278.344 213.406,285.842 207.722 C 286.479 207.239,286.910 206.836,286.800 206.825 C 286.690 206.814,284.982 208.019,283.005 209.503 M165.200 207.800 C 165.750 208.114,166.470 208.371,166.800 208.370 C 167.130 208.369,166.794 208.106,166.054 207.784 C 164.351 207.045,163.894 207.053,165.200 207.800 M172.600 210.214 C 173.260 210.517,174.070 210.758,174.400 210.752 C 174.730 210.745,174.370 210.497,173.600 210.200 C 171.774 209.497,171.055 209.507,172.600 210.214 M224.000 210.200 C 223.230 210.497,222.870 210.745,223.200 210.752 C 223.530 210.758,224.340 210.517,225.000 210.214 C 226.545 209.507,225.826 209.497,224.000 210.200 M176.200 211.200 C 176.640 211.389,177.360 211.538,177.800 211.532 C 178.443 211.523,178.404 211.457,177.600 211.200 C 176.232 210.762,175.181 210.762,176.200 211.200 M220.000 211.200 C 219.196 211.457,219.157 211.523,219.800 211.532 C 220.240 211.538,220.960 211.389,221.400 211.200 C 222.419 210.762,221.368 210.762,220.000 211.200 M181.600 212.400 C 182.150 212.576,183.050 212.717,183.600 212.713 C 184.498 212.706,184.478 212.674,183.400 212.400 C 181.708 211.969,180.256 211.969,181.600 212.400 M213.800 212.400 C 212.722 212.674,212.702 212.706,213.600 212.713 C 214.150 212.717,215.050 212.576,215.600 212.400 C 216.944 211.969,215.492 211.969,213.800 212.400 M210.100 213.076 C 210.485 213.176,211.115 213.176,211.500 213.076 C 211.885 212.975,211.570 212.893,210.800 212.893 C 210.030 212.893,209.715 212.975,210.100 213.076 M189.100 213.489 C 189.815 213.578,190.985 213.578,191.700 213.489 C 192.415 213.401,191.830 213.328,190.400 213.328 C 188.970 213.328,188.385 213.401,189.100 213.489 M205.500 213.489 C 206.215 213.578,207.385 213.578,208.100 213.489 C 208.815 213.401,208.230 213.328,206.800 213.328 C 205.370 213.328,204.785 213.401,205.500 213.489 M197.100 213.893 C 198.035 213.977,199.565 213.977,200.500 213.893 C 201.435 213.809,200.670 213.740,198.800 213.740 C 196.930 213.740,196.165 213.809,197.100 213.893 M261.842 232.700 C 257.877 238.848,254.952 245.095,252.430 252.800 C 250.071 260.012,249.598 261.771,249.627 263.235 C 249.645 264.092,250.152 262.666,250.991 259.400 C 253.585 249.305,256.913 241.364,261.961 233.225 C 264.380 229.323,264.287 228.910,261.842 232.700 M250.987 311.709 C 250.612 313.205,250.865 313.745,251.645 313.114 C 252.185 312.678,252.203 312.452,251.767 311.626 L 251.252 310.652 250.987 311.709 M147.200 321.600 C 147.200 322.202,147.409 322.418,147.900 322.324 C 148.285 322.250,148.600 321.924,148.600 321.600 C 148.600 321.276,148.285 320.950,147.900 320.876 C 147.409 320.782,147.200 320.998,147.200 321.600 M232.800 338.400 C 232.305 338.720,232.344 338.789,233.020 338.794 C 233.471 338.797,234.040 339.000,234.285 339.245 C 234.864 339.824,235.631 339.346,235.340 338.587 C 235.084 337.921,233.699 337.819,232.800 338.400 " stroke="none" fill="#e69d4f" fill-rule="evenodd"></path><path id="path4" d="M192.045 90.032 C 191.079 90.222,190.186 90.481,190.060 90.607 C 189.813 90.854,192.510 90.504,194.800 89.993 C 196.886 89.527,194.438 89.562,192.045 90.032 M206.600 90.023 C 208.737 90.465,210.204 90.450,208.800 90.000 C 208.250 89.824,207.170 89.683,206.400 89.686 L 205.000 89.692 206.600 90.023 M187.200 91.200 C 186.405 91.714,187.404 91.714,188.600 91.200 L 189.400 90.856 188.600 90.834 C 188.160 90.822,187.530 90.987,187.200 91.200 M213.000 91.200 C 214.101 91.673,214.492 91.673,214.200 91.200 C 214.064 90.980,213.558 90.813,213.076 90.828 C 212.231 90.855,212.229 90.869,213.000 91.200 M184.042 92.034 C 182.452 92.670,183.350 92.847,185.035 92.230 C 185.913 91.908,186.249 91.655,185.800 91.654 C 185.360 91.652,184.569 91.823,184.042 92.034 M217.802 92.770 C 220.327 93.895,221.619 94.097,219.400 93.020 C 218.300 92.486,217.130 92.051,216.800 92.053 C 216.470 92.055,216.921 92.378,217.802 92.770 M178.400 94.600 C 177.410 95.130,176.807 95.572,177.059 95.582 C 177.312 95.592,178.302 95.152,179.259 94.605 C 181.489 93.330,180.779 93.326,178.400 94.600 M223.200 94.980 C 223.200 95.080,224.325 95.792,225.700 96.563 C 231.913 100.048,239.505 107.565,242.800 113.496 C 243.318 114.428,243.811 115.122,243.896 115.038 C 244.096 114.837,241.997 110.956,241.210 110.072 C 240.874 109.696,239.702 108.310,238.604 106.994 C 234.381 101.930,223.200 93.210,223.200 94.980 M174.400 96.800 C 173.221 97.823,173.614 97.824,175.290 96.801 C 176.033 96.348,176.324 96.002,175.961 96.001 C 175.610 96.001,174.907 96.360,174.400 96.800 M171.656 98.813 C 170.429 99.835,171.092 99.823,172.400 98.800 C 172.950 98.370,173.220 98.020,173.000 98.022 C 172.780 98.025,172.175 98.381,171.656 98.813 M166.772 102.905 C 165.137 104.502,163.195 106.617,162.456 107.605 L 161.113 109.400 162.413 108.000 C 163.128 107.230,164.288 105.965,164.990 105.189 C 165.693 104.413,167.240 102.928,168.427 101.889 C 169.615 100.850,170.397 100.000,170.165 100.000 C 169.934 100.000,168.407 101.307,166.772 102.905 M45.500 104.282 C 45.995 104.378,46.805 104.378,47.300 104.282 C 47.795 104.187,47.390 104.109,46.400 104.109 C 45.410 104.109,45.005 104.187,45.500 104.282 M352.700 104.282 C 353.195 104.378,354.005 104.378,354.500 104.282 C 354.995 104.187,354.590 104.109,353.600 104.109 C 352.610 104.109,352.205 104.187,352.700 104.282 M41.600 104.806 C 41.178 105.082,41.415 105.123,42.400 104.942 C 44.125 104.625,44.451 104.398,43.167 104.406 C 42.635 104.409,41.930 104.589,41.600 104.806 M49.600 104.800 C 51.142 105.294,51.964 105.294,51.200 104.800 C 50.870 104.587,50.150 104.427,49.600 104.446 L 48.600 104.480 49.600 104.800 M348.000 104.800 C 347.236 105.294,348.058 105.294,349.600 104.800 L 350.600 104.480 349.600 104.446 C 349.050 104.427,348.330 104.587,348.000 104.800 M357.200 104.988 C 358.190 105.271,359.505 105.705,360.123 105.951 C 360.740 106.196,361.145 106.235,361.022 106.036 C 360.720 105.547,357.259 104.391,356.229 104.436 C 355.773 104.455,356.210 104.704,357.200 104.988 M38.300 105.863 C 37.475 106.206,36.800 106.630,36.800 106.806 C 36.800 107.074,39.834 105.836,40.367 105.352 C 40.727 105.024,39.727 105.272,38.300 105.863 M52.000 105.361 C 52.000 105.449,52.585 105.717,53.300 105.955 C 54.489 106.352,54.534 106.338,53.824 105.795 C 53.108 105.247,52.000 104.983,52.000 105.361 M345.600 105.800 C 345.050 106.114,344.780 106.372,345.000 106.372 C 345.220 106.372,345.850 106.114,346.400 105.800 C 346.950 105.486,347.220 105.228,347.000 105.228 C 346.780 105.228,346.150 105.486,345.600 105.800 M342.806 107.182 C 342.259 107.602,341.899 108.031,342.006 108.137 C 342.113 108.242,342.740 107.895,343.400 107.366 C 344.812 106.234,344.262 106.063,342.806 107.182 M35.000 108.098 C 33.943 108.867,33.272 109.537,32.092 111.000 C 26.241 118.259,27.898 131.120,35.316 136.016 L 36.600 136.863 35.187 135.532 C 27.058 127.872,26.680 116.771,34.295 109.300 C 35.473 108.145,36.383 107.206,36.318 107.213 C 36.253 107.220,35.660 107.618,35.000 108.098 M58.138 109.300 C 59.304 110.455,60.663 111.940,61.157 112.600 L 62.057 113.800 61.329 112.477 C 60.528 111.022,56.938 107.200,56.373 107.200 C 56.177 107.200,56.971 108.145,58.138 109.300 M363.400 107.845 C 363.840 108.186,364.475 108.675,364.811 108.933 C 365.899 109.766,368.252 112.964,368.810 114.369 C 369.109 115.122,369.414 115.559,369.487 115.340 C 369.922 114.034,364.568 107.179,363.139 107.213 C 362.793 107.221,362.887 107.448,363.400 107.845 M339.652 110.236 C 337.821 112.316,335.980 115.751,336.040 116.979 C 336.062 117.449,336.306 117.080,336.610 116.116 C 337.171 114.333,339.042 111.332,340.734 109.500 C 341.292 108.895,341.641 108.400,341.509 108.400 C 341.376 108.400,340.541 109.226,339.652 110.236 M160.000 110.800 C 159.530 111.460,159.236 112.000,159.346 112.000 C 159.456 112.000,159.930 111.460,160.400 110.800 C 160.870 110.140,161.164 109.600,161.054 109.600 C 160.944 109.600,160.470 110.140,160.000 110.800 M158.473 112.887 C 158.213 113.147,158.000 113.521,158.000 113.718 C 158.000 113.915,157.662 114.554,157.249 115.138 C 156.358 116.399,153.832 122.365,154.083 122.616 C 154.179 122.713,154.850 121.356,155.575 119.602 C 156.299 117.848,157.420 115.579,158.066 114.560 C 159.218 112.744,159.411 111.949,158.473 112.887 M292.267 113.067 C 292.120 113.213,292.021 114.068,292.046 114.967 L 292.092 116.600 292.384 115.096 C 292.789 113.008,292.851 113.000,294.800 114.800 C 296.624 116.484,297.186 116.748,296.066 115.397 C 294.590 113.615,292.810 112.524,292.267 113.067 M102.800 114.555 C 100.798 116.461,98.611 118.800,98.830 118.800 C 98.933 118.800,100.243 117.609,101.742 116.154 C 105.145 112.850,105.151 112.857,105.300 120.409 L 105.422 126.600 105.511 120.143 C 105.588 114.570,105.513 113.652,104.967 113.443 C 104.172 113.138,104.423 113.009,102.800 114.555 M62.561 115.489 C 62.856 116.326,63.237 117.818,63.408 118.805 C 63.579 119.792,63.803 120.356,63.907 120.057 C 64.136 119.397,62.846 114.476,62.366 114.179 C 62.178 114.063,62.266 114.652,62.561 115.489 M244.897 117.425 C 245.385 118.428,245.847 119.059,245.925 118.826 C 246.058 118.426,244.522 115.600,244.173 115.600 C 244.083 115.600,244.409 116.421,244.897 117.425 M369.612 116.400 C 369.612 116.730,369.787 117.270,370.000 117.600 C 370.345 118.133,370.388 118.133,370.388 117.600 C 370.388 117.270,370.213 116.730,370.000 116.400 C 369.655 115.867,369.612 115.867,369.612 116.400 M299.454 119.700 C 302.002 122.374,302.701 123.183,305.503 126.701 C 306.948 128.517,308.215 129.918,308.319 129.815 C 308.422 129.711,307.988 129.010,307.353 128.257 C 306.719 127.503,305.888 126.462,305.508 125.943 C 304.150 124.093,298.593 118.063,298.217 118.032 C 298.006 118.014,298.563 118.765,299.454 119.700 M335.456 118.884 C 335.321 119.388,335.234 120.880,335.261 122.200 C 335.311 124.574,335.315 124.565,335.618 121.400 C 335.934 118.097,335.882 117.294,335.456 118.884 M370.453 119.600 C 370.431 120.370,370.587 121.270,370.800 121.600 C 371.277 122.339,371.277 121.276,370.800 119.400 L 370.495 118.200 370.453 119.600 M97.704 119.900 C 96.994 120.533,93.013 125.176,92.314 126.187 C 92.157 126.414,91.458 127.281,90.761 128.113 C 90.064 128.946,89.578 129.711,89.681 129.815 C 89.784 129.918,90.963 128.607,92.299 126.901 C 93.636 125.195,95.225 123.260,95.831 122.600 C 96.436 121.940,97.385 120.905,97.940 120.300 C 99.067 119.072,98.916 118.819,97.704 119.900 M247.029 122.400 C 247.176 122.950,247.464 123.670,247.667 124.000 C 247.925 124.417,247.957 124.295,247.771 123.600 C 247.624 123.050,247.336 122.330,247.133 122.000 C 246.875 121.583,246.843 121.705,247.029 122.400 M292.131 124.600 C 292.133 126.140,292.205 126.721,292.292 125.891 C 292.379 125.061,292.377 123.801,292.289 123.091 C 292.200 122.381,292.129 123.060,292.131 124.600 M370.493 124.000 C 370.493 124.770,370.575 125.085,370.676 124.700 C 370.776 124.315,370.776 123.685,370.676 123.300 C 370.575 122.915,370.493 123.230,370.493 124.000 M63.378 124.978 C 63.227 125.781,63.204 126.537,63.326 126.660 C 63.448 126.782,63.672 126.225,63.822 125.422 C 63.973 124.619,63.996 123.863,63.874 123.740 C 63.752 123.618,63.528 124.175,63.378 124.978 M248.046 125.200 C 248.065 125.530,248.224 126.250,248.400 126.800 L 248.720 127.800 248.754 126.800 C 248.773 126.250,248.613 125.530,248.400 125.200 C 248.055 124.667,248.016 124.667,248.046 125.200 M335.618 125.274 C 335.596 126.098,336.357 128.177,336.593 127.940 C 336.687 127.846,336.510 127.056,336.200 126.185 C 335.889 125.313,335.627 124.903,335.618 125.274 M369.888 126.533 C 369.442 127.666,369.515 128.245,370.038 127.722 C 370.278 127.482,370.408 126.951,370.326 126.542 C 370.182 125.826,370.166 125.826,369.888 126.533 M62.517 128.415 C 62.271 129.067,62.214 129.600,62.391 129.600 C 62.720 129.600,63.351 127.617,63.101 127.368 C 63.026 127.292,62.763 127.764,62.517 128.415 M152.178 129.378 C 152.027 130.181,151.994 130.927,152.104 131.037 C 152.214 131.147,152.427 130.581,152.578 129.778 C 152.728 128.975,152.762 128.228,152.652 128.118 C 152.542 128.008,152.328 128.575,152.178 129.378 M291.413 130.613 C 291.257 132.071,291.220 133.353,291.330 133.463 C 291.440 133.573,291.657 132.471,291.813 131.013 C 291.969 129.556,292.007 128.274,291.897 128.164 C 291.787 128.054,291.569 129.156,291.413 130.613 M368.581 130.043 C 368.171 130.950,366.726 132.842,365.370 134.247 C 362.437 137.282,362.609 137.699,365.576 134.747 C 367.427 132.906,369.911 128.977,369.489 128.556 C 369.399 128.466,368.990 129.135,368.581 130.043 M105.844 131.000 C 105.962 132.320,106.213 134.030,106.403 134.800 C 106.658 135.831,106.689 135.538,106.522 133.687 C 106.396 132.306,106.145 130.596,105.962 129.887 C 105.729 128.982,105.694 129.312,105.844 131.000 M337.029 129.600 C 337.482 131.186,340.462 134.992,341.800 135.693 C 342.240 135.924,341.818 135.322,340.862 134.356 C 339.907 133.390,338.589 131.700,337.934 130.600 C 337.279 129.500,336.872 129.050,337.029 129.600 M60.428 132.069 C 58.852 134.362,56.663 136.244,53.800 137.770 C 52.225 138.609,52.055 138.784,53.000 138.593 C 55.263 138.134,59.022 135.060,61.030 132.027 C 62.598 129.657,62.061 129.694,60.428 132.069 M249.270 131.400 C 249.257 132.060,249.395 133.320,249.577 134.200 L 249.908 135.800 249.907 134.200 C 249.906 133.320,249.768 132.060,249.600 131.400 L 249.295 130.200 249.270 131.400 M87.201 132.998 C 86.686 133.548,86.365 134.098,86.488 134.221 C 86.612 134.345,87.105 133.896,87.584 133.223 C 88.638 131.742,88.473 131.645,87.201 132.998 M151.450 134.850 C 151.127 136.465,151.179 141.294,151.544 143.600 C 151.724 144.733,151.824 143.213,151.815 139.501 C 151.799 133.000,151.805 133.077,151.450 134.850 M311.914 135.500 C 312.301 136.105,313.213 137.545,313.943 138.700 C 314.672 139.855,315.358 140.800,315.467 140.800 C 315.690 140.800,314.429 138.652,312.708 136.100 C 311.451 134.235,310.786 133.733,311.914 135.500 M84.405 137.300 C 82.451 140.395,81.161 142.272,80.471 143.024 C 80.181 143.341,80.050 143.600,80.182 143.600 C 80.313 143.600,80.146 144.131,79.810 144.780 C 78.404 147.500,79.373 146.288,81.723 142.387 C 83.111 140.084,84.733 137.435,85.328 136.500 C 85.923 135.565,86.314 134.800,86.196 134.800 C 86.079 134.800,85.272 135.925,84.405 137.300 M290.656 136.084 C 290.521 136.588,290.427 137.360,290.446 137.800 C 290.465 138.240,290.645 137.898,290.846 137.040 C 291.236 135.378,291.070 134.540,290.656 136.084 M343.903 137.100 C 344.421 137.595,345.060 137.995,345.322 137.988 C 345.585 137.981,345.440 137.776,345.000 137.532 C 344.560 137.288,343.921 136.888,343.580 136.644 C 343.240 136.400,343.385 136.605,343.903 137.100 M36.801 137.134 C 36.803 137.467,40.376 138.957,40.610 138.723 C 40.705 138.629,39.886 138.173,38.791 137.710 C 37.696 137.247,36.801 136.988,36.801 137.134 M360.400 137.800 C 359.410 138.330,358.815 138.772,359.077 138.782 C 359.568 138.801,362.400 137.248,362.400 136.960 C 362.400 136.731,362.383 136.738,360.400 137.800 M106.800 137.748 C 106.800 138.455,108.524 144.809,108.675 144.658 C 108.877 144.456,107.352 138.019,107.025 137.692 C 106.901 137.568,106.800 137.593,106.800 137.748 M41.738 139.294 C 42.314 139.660,49.953 139.642,50.885 139.272 C 51.262 139.122,49.254 139.000,46.423 139.000 C 43.592 139.000,41.484 139.132,41.738 139.294 M348.400 139.173 C 349.170 139.593,353.353 139.983,352.924 139.594 C 352.746 139.433,351.520 139.199,350.200 139.073 C 348.873 138.947,348.068 138.992,348.400 139.173 M355.400 139.200 L 353.400 139.474 355.200 139.509 C 356.190 139.528,357.360 139.389,357.800 139.200 C 358.713 138.808,358.262 138.808,355.400 139.200 M289.400 141.600 C 289.248 142.291,289.214 142.947,289.324 143.057 C 289.434 143.167,289.648 142.691,289.800 142.000 C 289.952 141.309,289.986 140.653,289.876 140.543 C 289.766 140.433,289.552 140.909,289.400 141.600 M316.774 143.300 C 317.456 144.455,318.584 146.522,319.280 147.893 C 319.977 149.264,320.616 150.317,320.700 150.233 C 321.016 149.917,316.200 141.200,315.710 141.200 C 315.613 141.200,316.092 142.145,316.774 143.300 M249.670 142.650 C 249.631 143.338,249.505 144.508,249.389 145.250 C 249.196 146.486,249.215 146.517,249.608 145.614 C 249.844 145.072,249.971 143.902,249.889 143.014 C 249.768 141.702,249.727 141.633,249.670 142.650 M77.379 149.641 C 76.592 151.204,76.014 152.547,76.094 152.627 C 76.173 152.707,76.903 151.428,77.716 149.786 C 78.529 148.144,79.107 146.800,79.002 146.800 C 78.896 146.800,78.166 148.078,77.379 149.641 M152.249 148.400 C 152.388 149.390,152.652 150.560,152.836 151.000 C 153.043 151.494,153.077 151.112,152.926 150.000 C 152.792 149.010,152.528 147.840,152.339 147.400 C 152.123 146.894,152.090 147.262,152.249 148.400 M287.400 148.800 C 287.250 149.273,287.217 149.750,287.327 149.860 C 287.437 149.970,287.650 149.673,287.800 149.200 C 287.950 148.727,287.983 148.250,287.873 148.140 C 287.763 148.030,287.550 148.327,287.400 148.800 M248.229 151.029 C 248.081 151.615,248.051 152.184,248.161 152.294 C 248.271 152.404,248.481 152.015,248.629 151.429 C 248.776 150.842,248.806 150.273,248.696 150.163 C 248.586 150.053,248.376 150.442,248.229 151.029 M321.186 151.573 C 321.413 151.998,321.785 152.833,322.011 153.429 C 322.237 154.024,322.520 154.413,322.639 154.294 C 322.872 154.062,321.321 150.800,320.978 150.800 C 320.865 150.800,320.958 151.148,321.186 151.573 M110.832 151.454 C 110.815 151.704,111.063 152.514,111.384 153.254 C 111.706 153.994,111.968 154.330,111.966 154.000 C 111.963 153.261,110.878 150.823,110.832 151.454 M153.212 152.400 C 153.212 152.730,153.387 153.270,153.600 153.600 C 153.945 154.133,153.988 154.133,153.988 153.600 C 153.988 153.270,153.813 152.730,153.600 152.400 C 153.255 151.867,153.212 151.867,153.212 152.400 M247.013 154.870 C 246.650 156.042,246.250 157.270,246.126 157.600 C 245.973 158.007,246.033 158.071,246.314 157.800 C 246.781 157.348,248.085 153.152,247.836 152.902 C 247.747 152.813,247.377 153.699,247.013 154.870 M75.001 154.395 C 74.857 155.053,74.572 155.694,74.369 155.819 C 74.166 155.945,74.000 156.253,74.000 156.504 C 74.000 157.241,74.665 156.348,75.342 154.700 C 75.682 153.875,75.803 153.200,75.611 153.200 C 75.420 153.200,75.145 153.738,75.001 154.395 M284.880 155.680 C 284.401 156.814,284.072 157.806,284.150 157.883 C 284.228 157.961,284.688 157.101,285.173 155.973 C 285.659 154.845,285.987 153.854,285.903 153.770 C 285.820 153.686,285.359 154.546,284.880 155.680 M154.236 155.600 C 154.549 156.974,155.628 159.305,155.849 159.084 C 155.948 158.985,155.575 157.935,155.019 156.752 C 154.463 155.568,154.110 155.050,154.236 155.600 M322.801 155.276 C 322.801 155.648,322.948 156.044,323.129 156.156 C 323.310 156.268,323.960 157.639,324.573 159.202 C 325.186 160.766,325.762 161.971,325.853 161.881 C 325.943 161.790,325.617 160.655,325.127 159.358 C 324.044 156.487,322.804 154.311,322.801 155.276 M112.828 156.600 C 112.828 156.820,113.086 157.450,113.400 158.000 C 113.714 158.550,113.972 158.820,113.972 158.600 C 113.972 158.380,113.714 157.750,113.400 157.200 C 113.086 156.650,112.828 156.380,112.828 156.600 M244.881 160.209 C 244.402 161.194,244.094 162.000,244.197 162.000 C 244.468 162.000,246.084 158.751,245.903 158.570 C 245.819 158.486,245.359 159.224,244.881 160.209 M283.188 159.222 C 282.946 159.674,282.818 160.255,282.904 160.511 C 282.989 160.768,283.262 160.398,283.509 159.689 C 284.017 158.232,283.849 157.988,283.188 159.222 M71.675 162.219 C 71.194 163.211,70.808 164.332,70.817 164.711 C 70.826 165.090,71.276 164.335,71.817 163.033 C 72.993 160.200,72.904 159.690,71.675 162.219 M116.111 163.700 C 116.820 165.075,117.445 166.275,117.500 166.367 C 118.386 167.843,117.708 165.370,116.749 163.626 C 114.990 160.427,114.455 160.489,116.111 163.700 M157.245 162.224 C 157.618 163.243,160.594 168.000,160.860 168.000 C 161.021 168.000,160.365 166.721,159.401 165.157 C 157.706 162.409,156.924 161.344,157.245 162.224 M281.200 162.767 C 281.200 162.969,281.095 163.464,280.967 163.867 C 280.754 164.538,280.788 164.534,281.367 163.824 C 282.092 162.934,282.179 162.400,281.600 162.400 C 281.380 162.400,281.200 162.565,281.200 162.767 M240.903 166.911 C 239.255 169.392,238.898 169.824,235.038 174.011 C 233.917 175.227,234.459 174.777,236.242 173.011 C 239.230 170.052,243.126 164.993,242.726 164.592 C 242.632 164.499,241.812 165.542,240.903 166.911 M326.834 164.800 C 326.837 165.539,327.922 167.977,327.968 167.346 C 327.985 167.096,327.737 166.286,327.416 165.546 C 327.094 164.806,326.832 164.470,326.834 164.800 M279.350 166.716 C 278.125 168.614,277.473 170.000,277.804 170.000 C 277.903 170.000,278.368 169.235,278.838 168.300 C 279.309 167.365,279.971 166.284,280.311 165.898 C 280.651 165.511,280.847 165.114,280.747 165.014 C 280.647 164.914,280.019 165.680,279.350 166.716 M69.624 167.827 C 69.154 169.083,68.837 170.310,68.920 170.555 C 69.002 170.800,69.291 170.280,69.563 169.400 C 69.834 168.520,70.253 167.395,70.495 166.901 C 70.737 166.406,70.832 165.899,70.706 165.773 C 70.581 165.647,70.094 166.572,69.624 167.827 M328.000 168.238 C 328.000 168.865,329.713 174.020,329.870 173.864 C 330.068 173.665,328.417 168.000,328.161 168.000 C 328.072 168.000,328.000 168.107,328.000 168.238 M161.398 168.783 C 162.431 170.495,170.288 178.397,170.959 178.399 C 171.156 178.400,172.056 179.004,172.959 179.743 C 173.861 180.481,175.050 181.208,175.600 181.357 C 176.471 181.594,176.445 181.542,175.400 180.956 C 174.740 180.586,174.110 180.175,174.000 180.042 C 173.890 179.909,172.900 179.194,171.800 178.453 C 170.700 177.711,167.830 175.101,165.423 172.653 C 163.016 170.204,161.205 168.463,161.398 168.783 M119.400 169.238 C 125.433 179.705,141.293 195.176,151.100 200.160 C 153.259 201.257,152.562 200.556,149.900 198.952 C 148.525 198.124,146.770 196.971,146.000 196.390 C 145.230 195.809,143.218 194.299,141.528 193.033 C 135.590 188.585,124.589 177.287,123.812 174.838 C 123.666 174.377,123.404 174.000,123.230 174.000 C 123.056 174.000,122.251 172.926,121.441 171.614 C 120.189 169.585,118.400 167.503,119.400 169.238 M276.253 171.700 L 275.533 173.000 276.358 172.000 C 277.089 171.113,277.414 170.400,277.086 170.400 C 277.024 170.400,276.649 170.985,276.253 171.700 M67.692 174.248 C 66.502 178.580,66.600 179.442,67.823 175.400 C 68.355 173.640,68.745 171.930,68.688 171.600 C 68.631 171.270,68.183 172.462,67.692 174.248 M330.068 175.000 C 330.062 175.440,330.211 176.160,330.400 176.600 C 330.838 177.619,330.838 176.568,330.400 175.200 C 330.143 174.396,330.077 174.357,330.068 175.000 M272.783 176.500 C 270.390 179.433,270.051 179.938,271.040 179.098 C 271.841 178.419,274.593 174.800,274.310 174.800 C 274.232 174.800,273.545 175.565,272.783 176.500 M231.200 177.256 C 230.650 177.689,229.909 178.281,229.552 178.573 C 228.623 179.333,223.140 182.608,222.243 182.939 C 221.826 183.093,221.585 183.319,221.708 183.441 C 221.933 183.667,225.741 181.688,227.645 180.355 C 228.220 179.953,228.779 179.712,228.888 179.821 C 228.996 179.929,229.846 179.279,230.776 178.376 C 232.593 176.614,232.837 175.968,231.200 177.256 M66.059 180.600 C 65.809 181.480,65.620 182.560,65.638 183.000 C 65.656 183.440,65.922 182.900,66.228 181.800 C 66.533 180.700,66.723 179.620,66.648 179.400 C 66.574 179.180,66.308 179.720,66.059 180.600 M264.600 185.353 C 259.574 190.425,252.177 196.480,248.825 198.267 C 247.931 198.744,246.704 199.521,246.100 199.995 C 245.275 200.640,245.533 200.573,247.129 199.728 C 250.438 197.974,260.253 190.424,263.800 186.902 C 268.703 182.034,270.604 179.995,270.183 180.053 C 269.972 180.083,267.460 182.468,264.600 185.353 M331.228 180.276 C 331.318 181.315,331.944 182.196,331.972 181.324 C 331.987 180.842,331.820 180.336,331.600 180.200 C 331.380 180.064,331.213 180.098,331.228 180.276 M176.800 181.988 C 176.800 182.335,179.575 183.759,179.805 183.529 C 179.882 183.452,179.237 183.001,178.372 182.528 C 177.508 182.054,176.800 181.811,176.800 181.988 M332.064 183.400 C 332.071 183.840,332.317 185.100,332.610 186.200 L 333.144 188.200 332.916 186.200 C 332.791 185.100,332.545 183.840,332.370 183.400 L 332.051 182.600 332.064 183.400 M180.400 183.771 C 180.400 183.865,180.940 184.211,181.600 184.540 C 182.260 184.869,182.800 185.001,182.800 184.834 C 182.800 184.666,182.342 184.320,181.781 184.064 C 180.684 183.564,180.400 183.504,180.400 183.771 M220.000 183.998 C 219.670 184.210,217.870 184.855,216.000 185.431 C 214.130 186.008,212.420 186.537,212.200 186.608 C 211.980 186.679,212.133 186.751,212.541 186.768 C 213.459 186.808,220.460 184.491,220.980 183.976 C 221.485 183.476,220.788 183.491,220.000 183.998 M65.022 185.822 C 64.872 186.625,64.838 187.372,64.948 187.482 C 65.058 187.592,65.272 187.025,65.422 186.222 C 65.573 185.419,65.606 184.673,65.496 184.563 C 65.386 184.453,65.173 185.019,65.022 185.822 M184.600 185.587 C 185.480 185.982,186.920 186.406,187.800 186.529 C 189.276 186.736,189.245 186.707,187.400 186.162 C 186.300 185.837,185.087 185.398,184.705 185.186 C 184.323 184.974,183.783 184.815,183.505 184.834 C 183.227 184.852,183.720 185.191,184.600 185.587 M190.800 187.200 C 191.130 187.413,191.850 187.573,192.400 187.554 L 193.400 187.520 192.400 187.200 C 190.858 186.706,190.036 186.706,190.800 187.200 M209.200 187.200 L 208.200 187.520 209.200 187.532 C 209.750 187.538,210.560 187.389,211.000 187.200 L 211.800 186.856 211.000 186.868 C 210.560 186.874,209.750 187.024,209.200 187.200 M195.100 187.882 C 195.595 187.978,196.405 187.978,196.900 187.882 C 197.395 187.787,196.990 187.709,196.000 187.709 C 195.010 187.709,194.605 187.787,195.100 187.882 M201.000 188.000 L 198.200 188.259 200.800 188.290 C 202.230 188.307,204.390 188.184,205.600 188.017 L 207.800 187.713 205.800 187.727 C 204.700 187.735,202.540 187.858,201.000 188.000 M64.221 189.430 C 63.928 190.992,64.463 192.017,65.549 191.975 C 66.007 191.957,65.943 191.846,65.335 191.600 C 64.589 191.300,64.499 191.027,64.687 189.626 C 64.956 187.621,64.589 187.467,64.221 189.430 M72.000 192.400 C 72.330 192.613,73.410 192.769,74.400 192.747 C 76.042 192.709,76.094 192.678,75.000 192.400 C 73.137 191.926,71.267 191.926,72.000 192.400 M326.400 192.400 C 325.580 192.663,325.724 192.722,327.200 192.732 C 328.190 192.738,329.360 192.589,329.800 192.400 C 330.866 191.942,327.831 191.942,326.400 192.400 M78.394 193.184 C 80.434 193.701,83.709 194.070,82.323 193.626 C 81.730 193.436,80.290 193.180,79.123 193.056 C 77.406 192.874,77.266 192.898,78.394 193.184 M320.845 193.232 C 318.322 193.728,318.323 194.017,320.846 193.728 C 323.354 193.441,325.287 192.838,323.600 192.869 C 323.050 192.879,321.810 193.043,320.845 193.232 M84.000 194.101 C 84.110 194.207,86.180 194.869,88.600 195.572 C 94.754 197.359,94.625 197.326,94.374 197.057 C 94.110 196.773,87.233 194.634,85.200 194.203 C 84.430 194.040,83.890 193.994,84.000 194.101 M315.800 194.400 L 315.000 194.744 315.800 194.744 C 316.240 194.744,316.960 194.589,317.400 194.400 L 318.200 194.056 317.400 194.056 C 316.960 194.056,316.240 194.211,315.800 194.400 M311.600 195.600 C 311.067 195.945,311.067 195.988,311.600 195.988 C 311.930 195.988,312.470 195.813,312.800 195.600 C 313.333 195.255,313.333 195.212,312.800 195.212 C 312.470 195.212,311.930 195.387,311.600 195.600 M308.400 196.600 C 307.630 196.897,307.270 197.145,307.600 197.152 C 307.930 197.158,308.740 196.917,309.400 196.614 C 310.945 195.907,310.226 195.897,308.400 196.600 M97.600 198.600 C 98.150 198.914,98.780 199.172,99.000 199.172 C 99.220 199.172,98.950 198.914,98.400 198.600 C 97.850 198.286,97.220 198.028,97.000 198.028 C 96.780 198.028,97.050 198.286,97.600 198.600 M303.200 198.631 L 302.200 199.233 303.200 198.944 C 303.750 198.785,304.502 198.649,304.871 198.641 C 305.239 198.634,305.454 198.487,305.347 198.314 C 305.058 197.847,304.321 197.955,303.200 198.631 M99.600 199.520 C 99.600 199.695,100.275 200.081,101.100 200.376 C 103.686 201.302,103.855 201.277,102.000 200.241 C 100.062 199.159,99.600 199.020,99.600 199.520 M296.400 201.851 C 291.810 204.274,285.602 208.259,282.945 210.490 C 281.245 211.917,279.337 213.746,280.000 213.312 C 280.492 212.990,285.840 208.910,287.427 207.645 C 289.111 206.303,293.244 204.000,293.967 204.000 C 294.451 204.000,294.743 203.832,294.616 203.626 C 294.489 203.421,296.050 202.419,298.085 201.400 C 301.899 199.491,302.394 199.196,301.767 199.206 C 301.565 199.209,299.150 200.400,296.400 201.851 M152.800 200.984 C 152.800 201.094,153.520 201.551,154.400 202.000 C 155.280 202.449,156.000 202.726,156.000 202.616 C 156.000 202.506,155.280 202.049,154.400 201.600 C 153.520 201.151,152.800 200.874,152.800 200.984 M241.925 202.155 C 238.574 204.014,238.558 204.315,241.900 202.642 C 243.495 201.843,244.800 201.102,244.800 200.995 C 244.800 200.646,244.236 200.873,241.925 202.155 M104.000 201.352 C 104.000 201.653,106.895 203.238,107.089 203.044 C 107.193 202.941,106.540 202.480,105.639 202.020 C 104.737 201.560,104.000 201.260,104.000 201.352 M158.800 204.167 C 160.230 204.898,161.850 205.606,162.400 205.742 C 162.950 205.878,161.960 205.282,160.200 204.418 C 158.440 203.554,156.820 202.846,156.600 202.843 C 156.380 202.841,157.370 203.437,158.800 204.167 M107.600 203.404 C 107.600 203.503,108.361 203.972,109.291 204.446 C 110.221 204.921,111.886 205.965,112.991 206.767 C 115.746 208.767,117.346 209.760,117.056 209.290 C 116.463 208.332,107.600 202.815,107.600 203.404 M237.200 204.396 C 236.870 204.606,234.908 205.450,232.841 206.270 C 230.774 207.090,229.259 207.820,229.475 207.892 C 229.811 208.004,238.293 204.592,238.767 204.154 C 239.123 203.824,237.766 204.034,237.200 204.396 M163.744 206.309 C 163.878 206.527,164.454 206.794,165.024 206.903 C 166.247 207.136,165.821 206.617,164.450 206.202 C 163.858 206.023,163.592 206.063,163.744 206.309 M166.800 207.600 C 167.130 207.813,167.670 207.988,168.000 207.988 C 168.533 207.988,168.533 207.945,168.000 207.600 C 167.670 207.387,167.130 207.212,166.800 207.212 C 166.267 207.212,166.267 207.255,166.800 207.600 M171.400 208.985 C 180.550 212.212,198.207 214.112,207.400 212.857 C 208.500 212.707,204.990 212.578,199.600 212.572 C 188.907 212.558,181.143 211.575,173.800 209.304 C 169.476 207.967,167.933 207.762,171.400 208.985 M226.456 208.459 C 225.717 208.672,225.204 208.937,225.316 209.049 C 225.545 209.279,228.800 208.471,228.800 208.185 C 228.800 207.920,228.003 208.014,226.456 208.459 M220.400 210.222 C 218.530 210.720,217.360 211.141,217.800 211.157 C 218.713 211.190,224.353 209.780,224.703 209.431 C 225.070 209.063,224.038 209.253,220.400 210.222 M117.600 209.852 C 117.600 210.058,118.095 210.535,118.700 210.910 C 119.305 211.286,120.774 212.494,121.965 213.596 C 123.155 214.698,124.291 215.600,124.488 215.600 C 124.785 215.600,122.879 213.894,118.300 210.062 C 117.915 209.740,117.600 209.645,117.600 209.852 M211.800 211.833 L 209.400 212.363 211.800 212.153 C 213.120 212.037,214.830 211.794,215.600 211.612 L 217.000 211.282 215.600 211.292 C 214.830 211.298,213.120 211.541,211.800 211.833 M275.109 217.513 C 270.899 221.764,265.988 227.532,266.021 228.186 C 266.033 228.414,266.348 228.151,266.721 227.603 C 267.786 226.039,272.673 220.513,276.078 217.022 C 277.783 215.274,279.128 213.795,279.068 213.735 C 279.008 213.675,277.227 215.375,275.109 217.513 M127.738 219.100 C 129.398 220.805,131.435 223.100,132.263 224.200 C 134.055 226.580,134.779 227.354,135.004 227.129 C 135.096 227.037,133.602 225.169,131.685 222.978 C 126.633 217.201,125.497 216.000,125.086 216.000 C 124.884 216.000,126.078 217.395,127.738 219.100 M135.200 227.793 C 135.200 227.926,135.886 228.971,136.726 230.117 C 137.565 231.263,138.940 233.325,139.782 234.700 C 141.429 237.389,142.038 238.013,140.953 235.900 C 139.399 232.876,135.200 226.959,135.200 227.793 M263.516 231.509 C 261.686 234.262,260.254 236.800,260.533 236.800 C 260.617 236.800,261.375 235.675,262.216 234.300 C 263.058 232.925,263.868 231.710,264.017 231.600 C 264.354 231.352,265.677 228.800,265.469 228.800 C 265.386 228.800,264.507 230.019,263.516 231.509 M259.351 238.463 C 258.076 240.868,256.431 244.400,256.584 244.400 C 256.859 244.400,260.418 237.485,260.237 237.304 C 260.139 237.206,259.740 237.727,259.351 238.463 M141.600 237.759 C 141.600 237.847,142.048 238.702,142.595 239.659 C 143.790 241.750,143.929 241.414,142.792 239.184 C 142.091 237.811,141.600 237.224,141.600 237.759 M143.831 242.500 C 144.168 243.566,145.247 245.286,145.451 245.082 C 145.641 244.893,144.044 241.600,143.764 241.600 C 143.644 241.600,143.674 242.005,143.831 242.500 M255.915 245.410 C 255.792 245.845,255.569 246.560,255.420 247.000 C 255.271 247.440,255.442 247.294,255.800 246.676 C 256.158 246.058,256.381 245.342,256.295 245.086 C 256.210 244.830,256.039 244.976,255.915 245.410 M145.626 246.000 C 145.627 246.330,145.899 247.050,146.231 247.600 L 146.833 248.600 146.568 247.600 C 146.184 246.148,145.624 245.197,145.626 246.000 M146.814 248.854 C 146.806 248.994,147.063 249.714,147.384 250.454 C 147.706 251.194,147.969 251.530,147.970 251.200 C 147.972 250.624,146.843 248.334,146.814 248.854 M252.730 254.648 C 251.216 259.658,249.795 265.929,250.104 266.237 C 250.283 266.417,251.120 263.122,251.981 258.846 C 252.220 257.661,252.874 255.360,253.436 253.732 C 253.998 252.105,254.392 250.576,254.312 250.335 C 254.231 250.094,253.520 252.035,252.730 254.648 M148.028 252.676 C 148.013 253.158,148.180 253.664,148.400 253.800 C 148.873 254.092,148.873 253.701,148.400 252.600 C 148.069 251.829,148.055 251.831,148.028 252.676 M148.908 255.000 C 149.021 255.440,149.340 256.700,149.616 257.800 C 149.892 258.900,150.256 259.956,150.425 260.146 C 150.595 260.337,150.389 259.183,149.969 257.582 C 149.548 255.981,149.091 254.565,148.953 254.436 C 148.814 254.306,148.794 254.560,148.908 255.000 M150.873 263.200 C 150.875 263.750,151.117 265.100,151.410 266.200 L 151.944 268.200 151.713 266.208 C 151.586 265.112,151.344 263.762,151.175 263.208 L 150.869 262.200 150.873 263.200 M249.387 270.587 C 249.231 272.044,249.193 273.326,249.303 273.436 C 249.413 273.546,249.631 272.444,249.787 270.987 C 249.943 269.529,249.980 268.247,249.870 268.137 C 249.760 268.027,249.543 269.129,249.387 270.587 M152.198 280.643 C 152.197 286.559,152.317 290.500,152.463 289.400 C 152.818 286.742,152.828 273.415,152.477 271.443 C 152.325 270.586,152.199 274.726,152.198 280.643 M248.953 280.200 C 248.953 282.840,249.018 283.868,249.097 282.484 C 249.175 281.101,249.174 278.941,249.095 277.684 C 249.016 276.428,248.952 277.560,248.953 280.200 M249.247 288.033 C 249.273 289.445,249.439 291.140,249.614 291.800 C 249.801 292.498,249.842 291.495,249.714 289.400 C 249.455 285.167,249.180 284.361,249.247 288.033 M151.225 295.025 C 150.939 296.463,150.795 297.728,150.904 297.837 C 151.013 297.947,151.326 296.850,151.600 295.400 C 151.874 293.950,152.018 292.685,151.921 292.588 C 151.824 292.491,151.511 293.587,151.225 295.025 M250.040 294.280 C 249.987 295.435,250.878 299.522,251.066 298.985 C 251.145 298.756,250.956 297.406,250.645 295.985 C 250.335 294.563,250.062 293.796,250.040 294.280 M150.245 300.200 C 150.089 301.080,149.685 302.656,149.348 303.702 C 149.010 304.748,148.805 305.815,148.891 306.073 C 148.977 306.332,149.463 304.999,149.970 303.111 C 150.478 301.223,150.811 299.436,150.711 299.139 C 150.611 298.843,150.402 299.320,150.245 300.200 M251.268 300.600 C 251.262 301.260,251.411 302.160,251.600 302.600 C 252.070 303.694,252.070 301.867,251.600 300.400 C 251.288 299.425,251.279 299.430,251.268 300.600 M252.254 304.600 C 252.674 306.503,253.248 307.646,252.956 306.000 C 252.820 305.230,252.546 304.330,252.349 304.000 C 252.114 303.608,252.081 303.816,252.254 304.600 M148.244 307.243 C 147.592 309.320,145.711 314.206,144.748 316.328 C 144.117 317.718,143.600 319.023,143.600 319.228 C 143.600 319.433,143.420 319.600,143.200 319.600 C 142.980 319.600,142.800 319.899,142.800 320.265 C 142.800 320.631,142.237 321.808,141.549 322.880 C 140.860 323.953,140.391 324.924,140.506 325.039 C 140.778 325.311,142.838 321.694,144.550 317.938 C 146.426 313.821,148.890 307.157,148.632 306.899 C 148.515 306.782,148.340 306.936,148.244 307.243 M253.403 308.450 C 254.015 310.470,256.127 315.606,256.281 315.452 C 256.370 315.363,256.000 314.199,255.458 312.865 C 254.916 311.532,254.352 309.893,254.205 309.225 C 254.059 308.556,253.753 307.895,253.526 307.754 C 253.260 307.590,253.216 307.836,253.403 308.450 M256.400 316.209 C 256.400 316.662,259.644 322.786,261.582 325.990 C 262.709 327.855,263.580 329.735,263.516 330.167 C 263.401 330.947,256.951 334.480,252.200 336.365 C 251.100 336.801,250.531 337.168,250.936 337.179 C 251.582 337.197,259.198 333.819,260.800 332.803 C 261.130 332.593,261.971 332.133,262.669 331.780 C 264.568 330.820,264.592 330.169,262.840 327.241 C 260.317 323.025,258.846 320.353,257.810 318.100 C 256.971 316.276,256.400 315.510,256.400 316.209 M138.895 327.272 C 137.209 329.735,136.312 331.594,136.532 332.166 C 136.722 332.661,143.046 335.999,143.800 336.002 C 144.020 336.003,145.100 336.461,146.200 337.020 C 149.828 338.865,162.067 342.882,165.600 343.386 C 166.634 343.534,166.477 343.427,165.000 342.978 C 150.373 338.526,137.505 333.272,137.270 331.657 C 137.149 330.825,139.253 326.961,140.175 326.322 C 140.396 326.169,140.464 325.931,140.327 325.794 C 140.190 325.656,139.545 326.321,138.895 327.272 M248.400 337.800 C 247.820 338.132,247.652 338.372,248.000 338.373 C 248.330 338.374,248.949 338.110,249.376 337.787 C 250.364 337.040,249.715 337.048,248.400 337.800 M245.400 339.020 L 244.200 339.605 245.400 339.374 C 246.060 339.247,246.771 338.976,246.980 338.772 C 247.542 338.222,246.800 338.339,245.400 339.020 M240.400 340.660 C 238.419 341.380,238.159 341.553,239.307 341.383 C 240.842 341.157,244.695 339.633,243.600 339.685 C 243.270 339.701,241.830 340.140,240.400 340.660 M233.600 342.625 C 231.950 343.134,230.932 343.562,231.338 343.576 C 232.145 343.602,237.600 342.022,237.600 341.761 C 237.600 341.476,236.666 341.678,233.600 342.625 M169.000 344.209 C 171.705 344.904,173.115 344.872,170.600 344.172 C 169.500 343.866,168.240 343.633,167.800 343.655 C 167.360 343.677,167.900 343.926,169.000 344.209 M224.400 344.668 C 221.870 345.194,217.730 345.880,215.200 346.192 L 210.600 346.761 214.200 346.570 C 218.838 346.324,229.663 344.470,230.325 343.809 C 230.676 343.457,229.198 343.671,224.400 344.668 M172.841 344.974 C 173.172 345.305,180.610 346.367,184.000 346.568 C 187.171 346.755,187.090 346.730,182.800 346.188 C 180.270 345.868,177.336 345.425,176.280 345.203 C 174.295 344.786,172.536 344.669,172.841 344.974 M189.800 347.265 C 192.480 347.620,206.992 347.626,208.980 347.273 C 209.849 347.119,205.439 346.995,199.180 346.996 C 192.921 346.998,188.700 347.119,189.800 347.265 " stroke="none" fill="#ecf2ec" fill-rule="evenodd"></path></g></svg>