<svg xmlns="http://www.w3.org/2000/svg" width="98" height="37" viewBox="0 0 98 37">
  <g fill="none">
    <path fill="#192A3E" d="M72.957 27.7575C71.838 27.7575 70.9309 26.8504 70.9309 25.7314 69.9034 27.0781 68.2913 27.7514 66.0963 27.7514 65.1387 27.7514 64.2976 27.5696 63.5748 27.2075 62.8519 26.8454 62.2938 26.3446 61.9021 25.7052 61.5103 25.0674 61.3145 24.3494 61.3145 23.5559 61.3145 22.3294 61.7715 21.3587 62.6856 20.6423 63.5996 19.9258 64.8759 19.5591 66.5129 19.5422L70.9029 19.5422 70.9029 18.895C70.9029 17.929 70.6029 17.1817 70.0013 16.6548 69.3997 16.1278 68.5245 15.8644 67.3757 15.8644 65.9812 15.8644 64.5619 16.3559 63.1162 17.3404L62.0964 15.6825C63.0898 15.0447 64.0085 14.5824 64.8526 14.2974 65.6967 14.0124 66.7041 13.8706 67.87 13.8706 69.594 13.8706 70.9278 14.2897 71.8683 15.1263 72.8088 15.9645 73.2876 17.1339 73.3063 18.6362L73.3327 27.7575 72.957 27.7575zM69.4805 24.9426C70.2733 24.3987 70.7475 23.6776 70.9045 22.7793L70.9045 21.4065 66.8549 21.4065C65.7574 21.4065 64.9428 21.5714 64.4111 21.898 63.8795 22.2262 63.6136 22.7439 63.6136 23.4526 63.6136 24.1614 63.8841 24.7222 64.4236 25.1367 64.963 25.5512 65.6859 25.757607 66.5922 25.757607 67.7254 25.7592 68.6877 25.4864 69.4805 24.9426zM48.9278 12.113C48.0044 11.7078 47.0546 11.5044 46.0799 11.5044 44.7911 11.5044 43.6066 11.8156 42.5262 12.4366 41.4457 13.0575 40.5923 13.9003 39.9658 14.9619 39.3393 16.0235 39.0253 17.1945 39.0253 18.4718 39.0253 19.7321 39.3393 20.8985 39.9658 21.9678 40.5923 23.0386 41.4457 23.8845 42.5262 24.5054 43.6066 25.1263 44.7911 25.4376 46.0799 25.4376 47.0375 25.4376 47.978 25.2434 48.9014 24.8552 49.8248 24.4669 50.6425 23.9353 51.3576 23.262L52.8733 24.8937C51.9499 25.7919 50.8788 26.4961 49.6584 27.0045 48.4397 27.5145 47.2023 27.7687 45.9477 27.7687 44.2051 27.7687 42.6117 27.3589 41.1659 26.5392 39.7202 25.7195 38.5792 24.6009 37.7428 23.185 36.9065 21.769 36.4883 20.2067 36.4883 18.498 36.4883 16.8062 36.9111 15.2562 37.7552 13.8495 38.5994 12.4427 39.7544 11.3334 41.2172 10.5214 42.6801 9.70942 44.2921 9.3042 46.0519 9.3042 47.3235 9.3042 48.5563 9.54148 49.7502 10.016 50.9425 10.4906 51.9747 11.1593 52.8468 12.0237L51.3576 13.8109C50.6611 13.0852 49.8512 12.5198 48.9278 12.113zM55.8018 9.26953C57.1437 9.26953 58.2315 10.3574 58.2315 11.6993L58.2315 27.7695 55.8018 27.7695 55.8018 9.26953zM81.099 14.724C81.9353 14.2156 82.9287 13.9521 84.0775 13.9336L84.0775 16.2648C82.666 16.2124 81.5249 16.576 80.6544 17.3526 79.7838 18.1291 79.2864 19.1738 79.1651 20.4865L79.1651 27.7605 76.7354 27.7605 76.7354 13.8936C78.0773 13.8936 79.1651 14.9814 79.1651 16.3233L79.1651 16.9643C79.6175 15.9798 80.2626 15.234 81.099 14.724zM96.7334 27.7575C95.6144 27.7575 94.7073 26.8504 94.7073 25.7314 93.6797 27.0781 92.0676 27.7514 89.8726 27.7514 88.915 27.7514 88.074 27.5696 87.3511 27.2075 86.6283 26.8454 86.0702 26.3446 85.6784 25.7052 85.2867 25.0674 85.0908 24.3494 85.0908 23.5559 85.0908 22.3294 85.5479 21.3587 86.4619 20.6423 87.376 19.9258 88.6523 19.5591 90.2892 19.5422L94.6793 19.5422 94.6793 18.895C94.6793 17.929 94.3793 17.1817 93.7777 16.6548 93.176 16.1278 92.3008 15.8644 91.152 15.8644 89.7576 15.8644 88.3383 16.3559 86.8925 17.3404L85.8728 15.6825C86.8661 15.0447 87.7849 14.5824 88.629 14.2974 89.4731 14.0124 90.4804 13.8706 91.6464 13.8706 93.3704 13.8706 94.7042 14.2897 95.6447 15.1263 96.5852 15.9645 97.064 17.1339 97.0826 18.6362L97.1091 27.7575 96.7334 27.7575zM93.2569 24.9426C94.0497 24.3987 94.5238 23.6776 94.6808 22.7793L94.6808 21.4065 90.6312 21.4065C89.5337 21.4065 88.7191 21.5714 88.1875 21.898 87.6558 22.2262 87.39 22.7439 87.39 23.4526 87.39 24.1614 87.6605 24.7222 88.1999 25.1367 88.7394 25.5512 89.4622 25.757607 90.3685 25.757607 91.5018 25.7592 92.4641 25.4864 93.2569 24.9426z"/>
    <path fill="#2C74FF" d="M18.2965,37.0206 C13.4724,37.0206 8.84679,35.0719 5.4367,31.6014 C2.02661,28.131 0.109375,23.4272 0.109375,18.5198 C0.109375,13.6125 2.02509,8.90708 5.4367,5.43817 C8.84831,1.96926 13.4724,0.0205078 18.2965,0.0205078 L18.2965,18.5213 L18.2965,37.0206 Z"/>
  </g>
</svg>
